<?xml version="1.0" encoding="utf-8"?>
<!-- Generator: Adobe Illustrator 24.1.0, SVG Export Plug-In . SVG Version: 6.00 Build 0)  -->
<svg version="1.2" baseProfile="tiny" id="g-map-mobile-interactions-img" xmlns="http://www.w3.org/2000/svg" xmlns:xlink="http://www.w3.org/1999/xlink"
	 x="0px" y="0px" viewBox="0 0 375 365.156" xml:space="preserve">
<g>
	<g id="step1_1_">
		<rect x="19.554" y="100.785" fill="#A66120" width="29.564" height="7.959"/>
		<rect x="49.118" y="100.785" fill="#E3C477" width="29.564" height="7.959"/>
		<rect x="108.53" y="100.785" fill="#80CDC1" width="29.564" height="7.959"/>
		<rect x="78.681" y="100.785" fill="#E8E8E8" width="29.564" height="7.959"/>
		<rect x="137.808" y="100.785" fill="#3E8571" width="29.564" height="7.959"/>
		<g>
			<path fill="none" stroke="#000000" stroke-miterlimit="10" d="M200.891,233.278c0,0,21.955-7.905,28.084-34.788"/>
			<g>
				<polygon points="231.207,199.709 229.667,194.967 226.329,198.671 				"/>
			</g>
		</g>
		<line fill="none" x1="272.393" y1="178.553" x2="316.235" y2="178.553"/>
		
			<line fill="none" stroke="#FFFFFF" stroke-width="2" stroke-linecap="round" stroke-miterlimit="10" x1="288.733" y1="149.266" x2="277.772" y2="151.021"/>
		
			<line fill="none" stroke="#FFFFFF" stroke-width="2" stroke-linecap="round" stroke-miterlimit="10" x1="299.693" y1="146.897" x2="288.733" y2="149.266"/>
		
			<line fill="none" stroke="#FFFFFF" stroke-width="2" stroke-linecap="round" stroke-miterlimit="10" x1="310.654" y1="147.899" x2="299.693" y2="146.897"/>
		
			<line fill="none" stroke="#000000" stroke-width="2" stroke-linecap="round" stroke-miterlimit="10" x1="242.455" y1="283.749" x2="231.494" y2="284.764"/>
		
			<line fill="none" stroke="#000000" stroke-width="2" stroke-linecap="round" stroke-miterlimit="10" x1="253.415" y1="282.217" x2="242.455" y2="283.749"/>
		
			<line fill="none" stroke="#000000" stroke-width="2" stroke-linecap="round" stroke-miterlimit="10" x1="264.376" y1="286.853" x2="253.415" y2="282.217"/>
		<line fill="none" x1="246.859" y1="156.779" x2="246.859" y2="155.981"/>
		<line fill="none" x1="257.819" y1="156.779" x2="257.819" y2="155.981"/>
		
			<line fill="none" stroke="#000000" stroke-width="2" stroke-linecap="round" stroke-miterlimit="10" x1="224.186" y1="190.047" x2="213.226" y2="192.594"/>
		
			<line fill="none" stroke="#000000" stroke-width="2" stroke-linecap="round" stroke-miterlimit="10" x1="235.147" y1="189.537" x2="224.186" y2="190.047"/>
		
			<line fill="none" stroke="#000000" stroke-width="2" stroke-linecap="round" stroke-miterlimit="10" x1="246.107" y1="191.114" x2="235.147" y2="189.537"/>
		
			<line fill="none" stroke="#000000" stroke-width="2" stroke-linecap="round" stroke-miterlimit="10" x1="305.3" y1="234.488" x2="294.339" y2="236.733"/>
		
			<line fill="none" stroke="#000000" stroke-width="2" stroke-linecap="round" stroke-miterlimit="10" x1="316.26" y1="233.734" x2="305.3" y2="234.488"/>
		
			<line fill="none" stroke="#000000" stroke-width="2" stroke-linecap="round" stroke-miterlimit="10" x1="327.221" y1="235.125" x2="316.26" y2="233.734"/>
		<path fill="none" d="M154.184,307.528"/>
		
			<line fill="none" stroke="#000000" stroke-width="2" stroke-linecap="round" stroke-miterlimit="10" x1="165.145" y1="305.161" x2="154.184" y2="307.528"/>
		<rect x="-930.728" y="113.275" fill="#A66120" width="29.564" height="7.959"/>
		<rect x="-901.165" y="113.275" fill="#E3C477" width="29.564" height="7.959"/>
		<rect x="-841.752" y="113.275" fill="#80CDC1" width="29.564" height="7.959"/>
		<rect x="-871.601" y="113.275" fill="#E8E8E8" width="29.564" height="7.959"/>
		<rect x="-812.474" y="113.275" fill="#3E8571" width="29.564" height="7.959"/>
		<g>
			<path fill="none" stroke="#000000" stroke-miterlimit="10" d="M-763.09,251.123c0,0,27.996-14.091,37.968-48.139"/>
			<g>
				<polygon points="-723.001,204.362 -724.188,199.52 -727.789,202.969 				"/>
			</g>
		</g>
		<line fill="none" x1="-634.211" y1="108.93" x2="-633.115" y2="108.93"/>
		<line fill="none" x1="-634.211" y1="92.978" x2="-633.115" y2="92.978"/>
		
			<line fill="none" stroke="#FFFFFF" stroke-width="2" stroke-linecap="round" stroke-miterlimit="10" x1="-617.698" y1="102.289" x2="-628.659" y2="104.045"/>
		
			<line fill="none" stroke="#FFFFFF" stroke-width="2" stroke-linecap="round" stroke-miterlimit="10" x1="-606.738" y1="99.92" x2="-617.698" y2="102.289"/>
		
			<line fill="none" stroke="#FFFFFF" stroke-width="2" stroke-linecap="round" stroke-miterlimit="10" x1="-595.777" y1="100.922" x2="-606.738" y2="99.92"/>
		
			<line fill="none" stroke="#000000" stroke-width="2" stroke-linecap="round" stroke-miterlimit="10" x1="-684.768" y1="347.404" x2="-695.728" y2="348.419"/>
		
			<line fill="none" stroke="#000000" stroke-width="2" stroke-linecap="round" stroke-miterlimit="10" x1="-673.807" y1="345.871" x2="-684.768" y2="347.404"/>
		
			<line fill="none" stroke="#000000" stroke-width="2" stroke-linecap="round" stroke-miterlimit="10" x1="-662.847" y1="350.508" x2="-673.807" y2="345.871"/>
		<line fill="none" x1="-728.037" y1="217.197" x2="-684.196" y2="217.197"/>
		<line fill="none" x1="-728.037" y1="217.197" x2="-728.037" y2="216.4"/>
		<line fill="none" x1="-717.077" y1="217.197" x2="-717.077" y2="216.4"/>
		<line fill="none" x1="-706.117" y1="217.197" x2="-706.117" y2="216.4"/>
		<line fill="none" x1="-695.156" y1="217.197" x2="-695.156" y2="216.4"/>
		<line fill="none" x1="-684.196" y1="217.197" x2="-684.196" y2="216.4"/>
		<line fill="none" x1="-728.037" y1="217.197" x2="-726.941" y2="217.197"/>
		<line fill="none" x1="-728.037" y1="206.563" x2="-726.941" y2="206.563"/>
		<line fill="none" x1="-728.037" y1="195.928" x2="-726.941" y2="195.928"/>
		
			<line fill="none" stroke="#000000" stroke-width="2" stroke-linecap="round" stroke-miterlimit="10" x1="-711.597" y1="192.916" x2="-722.557" y2="195.464"/>
		
			<line fill="none" stroke="#000000" stroke-width="2" stroke-linecap="round" stroke-miterlimit="10" x1="-700.636" y1="192.406" x2="-711.597" y2="192.916"/>
		
			<line fill="none" stroke="#000000" stroke-width="2" stroke-linecap="round" stroke-miterlimit="10" x1="-689.676" y1="193.983" x2="-700.636" y2="192.406"/>
		<line fill="none" x1="-593.509" y1="255.339" x2="-592.413" y2="255.339"/>
		
			<line fill="none" stroke="#000000" stroke-width="2" stroke-linecap="round" stroke-miterlimit="10" x1="-577.068" y1="261.626" x2="-588.029" y2="263.871"/>
		
			<line fill="none" stroke="#000000" stroke-width="2" stroke-linecap="round" stroke-miterlimit="10" x1="-566.108" y1="260.872" x2="-577.068" y2="261.626"/>
		
			<line fill="none" stroke="#000000" stroke-width="2" stroke-linecap="round" stroke-miterlimit="10" x1="-555.148" y1="262.263" x2="-566.108" y2="260.872"/>
		<line fill="none" x1="-870.093" y1="375.181" x2="-868.997" y2="375.181"/>
		
			<line fill="none" stroke="#000000" stroke-width="2" stroke-linecap="round" stroke-miterlimit="10" x1="-831.732" y1="382.875" x2="-842.692" y2="385.242"/>
		<rect x="-1885.685" y="121.558" fill="#A66120" width="29.564" height="7.959"/>
		<rect x="-1856.121" y="121.558" fill="#E3C477" width="29.564" height="7.959"/>
		<rect x="-1796.709" y="121.558" fill="#80CDC1" width="29.564" height="7.959"/>
		<rect x="-1826.558" y="121.558" fill="#E8E8E8" width="29.564" height="7.959"/>
		<rect x="-1767.43" y="121.558" fill="#3E8571" width="29.564" height="7.959"/>
		<g>
			<path fill="none" stroke="#000000" stroke-miterlimit="10" d="M-1661.63,285.242c0,0,46.03-3.908,70.597-38.183"/>
			<g>
				<polygon points="-1589.402,249.065 -1589.012,244.094 -1593.512,246.241 				"/>
			</g>
		</g>
		<line fill="none" x1="-1497.408" y1="142.126" x2="-1496.312" y2="142.126"/>
		<line fill="none" x1="-1497.408" y1="126.175" x2="-1496.312" y2="126.175"/>
		
			<line fill="none" stroke="#FFFFFF" stroke-width="2" stroke-linecap="round" stroke-miterlimit="10" x1="-1480.896" y1="135.486" x2="-1491.856" y2="137.241"/>
		
			<line fill="none" stroke="#FFFFFF" stroke-width="2" stroke-linecap="round" stroke-miterlimit="10" x1="-1469.935" y1="133.117" x2="-1480.896" y2="135.486"/>
		
			<line fill="none" stroke="#FFFFFF" stroke-width="2" stroke-linecap="round" stroke-miterlimit="10" x1="-1458.975" y1="134.119" x2="-1469.935" y2="133.117"/>
		
			<line fill="none" stroke="#000000" stroke-width="2" stroke-linecap="round" stroke-miterlimit="10" x1="-1568.391" y1="426.714" x2="-1579.352" y2="427.729"/>
		
			<line fill="none" stroke="#000000" stroke-width="2" stroke-linecap="round" stroke-miterlimit="10" x1="-1557.431" y1="425.181" x2="-1568.391" y2="426.714"/>
		
			<line fill="none" stroke="#000000" stroke-width="2" stroke-linecap="round" stroke-miterlimit="10" x1="-1546.47" y1="429.818" x2="-1557.431" y2="425.181"/>
		<line fill="none" x1="-1592.143" y1="257.226" x2="-1592.143" y2="256.428"/>
		<line fill="none" x1="-1592.143" y1="257.226" x2="-1592.143" y2="225.323"/>
		<line fill="none" x1="-1592.143" y1="257.226" x2="-1591.047" y2="257.226"/>
		<line fill="none" x1="-1592.143" y1="246.591" x2="-1591.047" y2="246.591"/>
		<line fill="none" x1="-1592.143" y1="235.957" x2="-1591.047" y2="235.957"/>
		<line fill="none" x1="-1592.143" y1="225.323" x2="-1591.047" y2="225.323"/>
		
			<line fill="none" stroke="#000000" stroke-width="2" stroke-linecap="round" stroke-miterlimit="10" x1="-1575.702" y1="232.945" x2="-1586.662" y2="235.492"/>
		
			<line fill="none" stroke="#000000" stroke-width="2" stroke-linecap="round" stroke-miterlimit="10" x1="-1564.742" y1="232.435" x2="-1575.702" y2="232.945"/>
		
			<line fill="none" stroke="#000000" stroke-width="2" stroke-linecap="round" stroke-miterlimit="10" x1="-1553.781" y1="234.012" x2="-1564.742" y2="232.435"/>
		<line fill="none" x1="-1438.697" y1="318.349" x2="-1437.6" y2="318.349"/>
		
			<line fill="none" stroke="#000000" stroke-width="2" stroke-linecap="round" stroke-miterlimit="10" x1="-1422.256" y1="324.635" x2="-1433.216" y2="326.88"/>
		
			<line fill="none" stroke="#000000" stroke-width="2" stroke-linecap="round" stroke-miterlimit="10" x1="-1411.295" y1="323.881" x2="-1422.256" y2="324.635"/>
		
			<line fill="none" stroke="#000000" stroke-width="2" stroke-linecap="round" stroke-miterlimit="10" x1="-1400.335" y1="325.272" x2="-1411.295" y2="323.881"/>
		<path fill="#AFAFAF" d="M-1763.314,507.473"/>
		
			<line fill="none" stroke="#000000" stroke-width="2" stroke-linecap="round" stroke-miterlimit="10" x1="-1752.354" y1="505.105" x2="-1763.314" y2="507.473"/>
	</g>
	<g id="step2_1_">
		<rect x="-1712.877" y="73.032" fill="#F9D687" width="60.317" height="180.312"/>
		
		
		<line stroke="#000000" stroke-miterlimit="10" x1="42.597" y1="196.204" x2="225.566" y2="196.204"/>
		<line x1="42.597" y1="196.204" x2="42.597" y2="192.953"/>
		<line fill="none" x1="87.272" y1="196.204" x2="87.272" y2="192.953"/>
		<line fill="none" x1="131.946" y1="196.204" x2="131.946" y2="192.953"/>
		<line fill="none" x1="176.62" y1="196.204" x2="176.62" y2="192.953"/>
		<line fill="none" stroke="#000000" stroke-miterlimit="10" x1="42.597" y1="196.693" x2="42.597" y2="44.311"/>
		<line fill="none" x1="42.597" y1="196.204" x2="47.065" y2="196.204"/>
		<line fill="none" x1="42.597" y1="131.186" x2="47.065" y2="131.186"/>
		<line fill="none" x1="42.597" y1="43.822" x2="47.065" y2="43.822"/>
		
			<line fill="none" stroke="#000000" stroke-width="2" stroke-linecap="round" stroke-miterlimit="10" x1="109.609" y1="79.506" x2="64.934" y2="83.644"/>
		
			<line fill="none" stroke="#000000" stroke-width="2" stroke-linecap="round" stroke-miterlimit="10" x1="154.283" y1="73.259" x2="109.609" y2="79.506"/>
		
			<line fill="none" stroke="#000000" stroke-width="2" stroke-linecap="round" stroke-miterlimit="10" x1="198.958" y1="92.158" x2="154.283" y2="73.259"/>
		<line stroke="#000000" stroke-miterlimit="10" x1="-1860.844" y1="253.344" x2="-1630.098" y2="253.344"/>
		<line x1="-1860.844" y1="253.344" x2="-1860.844" y2="249.037"/>
		<line fill="none" x1="-1801.657" y1="253.344" x2="-1801.657" y2="249.037"/>
		<line fill="none" x1="-1742.471" y1="253.344" x2="-1742.471" y2="249.037"/>
		<line fill="none" x1="-1683.284" y1="253.344" x2="-1683.284" y2="249.037"/>
		<line fill="none" x1="-1630.098" y1="253.344" x2="-1630.098" y2="249.037"/>
		<line fill="none" stroke="#000000" stroke-miterlimit="10" x1="-1860.844" y1="253.992" x2="-1860.844" y2="81.716"/>
		<line fill="none" x1="-1860.844" y1="253.344" x2="-1854.925" y2="253.344"/>
		<line fill="none" x1="-1860.844" y1="167.206" x2="-1854.925" y2="167.206"/>
		<line fill="none" x1="-1860.844" y1="81.068" x2="-1854.925" y2="81.068"/>
		
			<line fill="none" stroke="#000000" stroke-width="2" stroke-linecap="round" stroke-miterlimit="10" x1="-1772.064" y1="98.739" x2="-1831.25" y2="104.22"/>
		
			<line fill="none" stroke="#000000" stroke-width="2" stroke-linecap="round" stroke-miterlimit="10" x1="-1712.877" y1="90.462" x2="-1772.064" y2="98.739"/>
		
			<line fill="none" stroke="#000000" stroke-width="2" stroke-linecap="round" stroke-miterlimit="10" x1="-1653.691" y1="115.501" x2="-1712.877" y2="90.462"/>
		<line stroke="#000000" stroke-miterlimit="10" x1="-911.974" y1="197.743" x2="-718.528" y2="197.743"/>
		<line x1="-911.974" y1="197.743" x2="-911.974" y2="194.132"/>
		<line fill="none" x1="-862.355" y1="197.743" x2="-862.355" y2="194.132"/>
		<line fill="none" x1="-812.736" y1="197.743" x2="-812.736" y2="194.132"/>
		<line fill="none" x1="-763.117" y1="197.743" x2="-763.117" y2="194.132"/>
		<line fill="none" x1="-718.528" y1="197.743" x2="-718.528" y2="194.132"/>
		
			<line fill="none" stroke="#000000" stroke-width="2" stroke-linecap="round" stroke-miterlimit="10" x1="-837.546" y1="68.129" x2="-887.164" y2="72.725"/>
		
			<line fill="none" stroke="#000000" stroke-width="2" stroke-linecap="round" stroke-miterlimit="10" x1="-787.927" y1="61.191" x2="-837.546" y2="68.129"/>
		
			<line fill="none" stroke="#000000" stroke-width="2" stroke-linecap="round" stroke-miterlimit="10" x1="-738.308" y1="82.182" x2="-787.927" y2="61.191"/>
		<line fill="none" stroke="#000000" stroke-miterlimit="10" x1="-911.974" y1="198.286" x2="-911.974" y2="53.858"/>
	</g>
	<g id="step3_1_">
		<rect x="64.424" y="89.637" fill="#A66120" width="10.347" height="2.786"/>
		<rect x="74.772" y="89.637" fill="#CC8956" width="10.347" height="2.786"/>
		<rect x="116.211" y="89.637" fill="#63CEAA" width="10.347" height="2.786"/>
		<rect x="95.566" y="89.637" fill="#E8E8E8" width="10.347" height="2.786"/>
		<polyline fill="#3E8571" points="136.805,92.423 126.458,92.423 126.458,89.637 136.805,89.637 		"/>
		<rect x="85.119" y="89.637" fill="#E3C477" width="10.347" height="2.786"/>
		<rect x="105.813" y="89.637" fill="#80CDC1" width="10.347" height="2.786"/>
		<line fill="none" x1="9.456" y1="250.572" x2="9.41" y2="148.018"/>
		<rect x="111.126" y="107.875" fill="#E3C477" width="26.913" height="7.4"/>
		<rect x="126.307" y="124.154" fill="#CC8956" width="11.733" height="7.4"/>
		<rect x="126.941" y="140.432" fill="#E3C477" width="11.099" height="7.4"/>
		<rect x="127.483" y="156.711" fill="#CC8956" width="10.557" height="7.4"/>
		<rect x="128.966" y="175.989" fill="#CC8956" width="9.073" height="7.4"/>
		<rect x="11.852" y="199.494" fill="#80CDC1" width="36.583" height="7.4"/>
		<rect x="11.852" y="215.773" fill="#3E8571" width="7.563" height="7.4"/>
		<rect x="11.852" y="232.051" fill="#63CEAA" width="4.954" height="7.4"/>
		<rect x="11.852" y="249.33" fill="#80CDC1" width="2.579" height="7.4"/>
		<rect x="11.852" y="265.608" fill="#80CDC1" width="2.543" height="7.4"/>
		<rect x="-887.369" y="80.693" fill="#A66120" width="20.695" height="5.572"/>
		<rect x="-866.674" y="80.693" fill="#CC8956" width="20.695" height="5.572"/>
		<rect x="-783.797" y="80.693" fill="#63CEAA" width="20.695" height="5.572"/>
		<rect x="-825.086" y="80.692" fill="#E8E8E8" width="20.695" height="5.572"/>
		<rect x="-763.302" y="80.693" fill="#3E8571" width="20.695" height="5.572"/>
		<rect x="-845.98" y="80.692" fill="#E3C477" width="20.695" height="5.572"/>
		<rect x="-804.591" y="80.693" fill="#80CDC1" width="20.695" height="5.572"/>
		<line fill="none" x1="-848.787" y1="295.464" x2="-750.59" y2="295.464"/>
		<line fill="none" x1="-805.144" y1="295.464" x2="-805.144" y2="148.629"/>
		<rect x="-843.591" y="106.685" fill="#E3C477" width="38.447" height="10.572"/>
		<rect x="-821.905" y="126.368" fill="#CC8956" width="16.761" height="10.572"/>
		<rect x="-820.999" y="146.052" fill="#E3C477" width="15.856" height="10.572"/>
		<rect x="-820.225" y="164.735" fill="#CC8956" width="15.081" height="10.572"/>
		<rect x="-818.106" y="184.419" fill="#CC8956" width="12.962" height="10.572"/>
		<rect x="-805.144" y="204.102" fill="#80CDC1" width="52.262" height="10.572"/>
		<rect x="-805.144" y="223.786" fill="#3E8571" width="10.805" height="10.572"/>
		<rect x="-805.144" y="243.469" fill="#63CEAA" width="7.078" height="10.572"/>
		<rect x="-805.144" y="263.153" fill="#80CDC1" width="3.685" height="10.572"/>
		<rect x="-805.144" y="282.836" fill="#80CDC1" width="3.632" height="10.572"/>
		<rect x="-1837.816" y="92.073" fill="#A66120" width="20.695" height="5.572"/>
		<rect x="-1817.122" y="92.073" fill="#CC8956" width="20.695" height="5.572"/>
		<rect x="-1734.244" y="92.073" fill="#63CEAA" width="20.695" height="5.572"/>
		<rect x="-1775.533" y="92.073" fill="#E8E8E8" width="20.695" height="5.572"/>
		<rect x="-1713.749" y="92.073" fill="#3E8571" width="20.695" height="5.572"/>
		<rect x="-1796.427" y="92.073" fill="#E3C477" width="20.695" height="5.572"/>
		<rect x="-1755.038" y="92.073" fill="#80CDC1" width="20.695" height="5.572"/>
		<line fill="none" x1="-1802.813" y1="338.075" x2="-1680.067" y2="338.075"/>
		<line fill="none" x1="-1748.259" y1="338.075" x2="-1748.259" y2="191.24"/>
		<rect x="-1796.319" y="117.295" fill="#E3C477" width="48.059" height="10.572"/>
		<rect x="-1769.211" y="139.979" fill="#CC8956" width="20.951" height="10.572"/>
		<rect x="-1768.079" y="162.662" fill="#E3C477" width="19.819" height="10.572"/>
		<rect x="-1767.11" y="185.346" fill="#CC8956" width="18.851" height="10.572"/>
		<rect x="-1764.462" y="208.029" fill="#CC8956" width="16.203" height="10.572"/>
		<rect x="-1748.259" y="232.713" fill="#80CDC1" width="65.327" height="10.572"/>
		<rect x="-1748.259" y="255.396" fill="#3E8571" width="13.506" height="10.572"/>
		<rect x="-1748.259" y="278.08" fill="#63CEAA" width="8.847" height="10.572"/>
		<rect x="-1748.259" y="301.763" fill="#80CDC1" width="4.606" height="10.572"/>
		<rect x="-1748.259" y="325.447" fill="#80CDC1" width="4.54" height="10.572"/>
	</g>
</g>
<style>
#g-map-mobile-interactions-img rect, #g-map-mobile-interactions-img circle, #g-map-mobile-interactions-img path, #g-map-mobile-interactions-img line, #g-map-mobile-interactions-img polyline, #g-map-mobile-interactions-img polygon { vector-effect: non-scaling-stroke; }
</style>
</svg>

