<?xml version="1.0" encoding="utf-8"?>
<!-- Generator: Adobe Illustrator 24.1.0, SVG Export Plug-In . SVG Version: 6.00 Build 0)  -->
<svg version="1.2" baseProfile="tiny" id="g-map-medium-interactions-img" xmlns="http://www.w3.org/2000/svg" xmlns:xlink="http://www.w3.org/1999/xlink"
	 x="0px" y="0px" viewBox="0 0 620 628" xml:space="preserve">
<g>
	<g id="step1_1_">
		<rect x="1926.564" y="100.785" fill="#A66120" width="29.564" height="7.959"/>
		<rect x="1956.128" y="100.785" fill="#E3C477" width="29.564" height="7.959"/>
		<rect x="2015.54" y="100.785" fill="#80CDC1" width="29.564" height="7.959"/>
		<rect x="1985.691" y="100.785" fill="#E8E8E8" width="29.564" height="7.959"/>
		<rect x="2044.818" y="100.785" fill="#3E8571" width="29.564" height="7.959"/>
		<g>
			<path fill="none" stroke="#000000" stroke-miterlimit="10" d="M2107.901,233.278c0,0,21.955-7.905,28.084-34.788"/>
			<g>
				<polygon points="2138.217,199.709 2136.677,194.967 2133.339,198.671 				"/>
			</g>
		</g>
		<line fill="none" x1="2179.403" y1="178.553" x2="2223.245" y2="178.553"/>
		
			<line fill="none" stroke="#FFFFFF" stroke-width="2" stroke-linecap="round" stroke-miterlimit="10" x1="2195.743" y1="149.266" x2="2184.782" y2="151.021"/>
		
			<line fill="none" stroke="#FFFFFF" stroke-width="2" stroke-linecap="round" stroke-miterlimit="10" x1="2206.703" y1="146.897" x2="2195.743" y2="149.266"/>
		
			<line fill="none" stroke="#FFFFFF" stroke-width="2" stroke-linecap="round" stroke-miterlimit="10" x1="2217.664" y1="147.899" x2="2206.703" y2="146.897"/>
		
			<line fill="none" stroke="#000000" stroke-width="2" stroke-linecap="round" stroke-miterlimit="10" x1="2149.465" y1="283.749" x2="2138.504" y2="284.764"/>
		
			<line fill="none" stroke="#000000" stroke-width="2" stroke-linecap="round" stroke-miterlimit="10" x1="2160.425" y1="282.217" x2="2149.465" y2="283.749"/>
		
			<line fill="none" stroke="#000000" stroke-width="2" stroke-linecap="round" stroke-miterlimit="10" x1="2171.385" y1="286.853" x2="2160.425" y2="282.217"/>
		<line fill="none" x1="2153.869" y1="156.779" x2="2153.869" y2="155.981"/>
		<line fill="none" x1="2164.83" y1="156.779" x2="2164.83" y2="155.981"/>
		
			<line fill="none" stroke="#000000" stroke-width="2" stroke-linecap="round" stroke-miterlimit="10" x1="2131.196" y1="190.047" x2="2120.236" y2="192.594"/>
		
			<line fill="none" stroke="#000000" stroke-width="2" stroke-linecap="round" stroke-miterlimit="10" x1="2142.157" y1="189.537" x2="2131.196" y2="190.047"/>
		
			<line fill="none" stroke="#000000" stroke-width="2" stroke-linecap="round" stroke-miterlimit="10" x1="2153.117" y1="191.114" x2="2142.157" y2="189.537"/>
		
			<line fill="none" stroke="#000000" stroke-width="2" stroke-linecap="round" stroke-miterlimit="10" x1="2212.31" y1="234.488" x2="2201.349" y2="236.733"/>
		
			<line fill="none" stroke="#000000" stroke-width="2" stroke-linecap="round" stroke-miterlimit="10" x1="2223.27" y1="233.734" x2="2212.31" y2="234.488"/>
		
			<line fill="none" stroke="#000000" stroke-width="2" stroke-linecap="round" stroke-miterlimit="10" x1="2234.231" y1="235.125" x2="2223.27" y2="233.734"/>
		<path fill="none" d="M2061.194,307.528"/>
		
			<line fill="none" stroke="#000000" stroke-width="2" stroke-linecap="round" stroke-miterlimit="10" x1="2072.155" y1="305.161" x2="2061.194" y2="307.528"/>
		<rect x="976.282" y="113.275" fill="#A66120" width="29.564" height="7.959"/>
		<rect x="1005.845" y="113.275" fill="#E3C477" width="29.564" height="7.959"/>
		<rect x="1065.258" y="113.275" fill="#80CDC1" width="29.564" height="7.959"/>
		<rect x="1035.409" y="113.275" fill="#E8E8E8" width="29.564" height="7.959"/>
		<rect x="1094.536" y="113.275" fill="#3E8571" width="29.564" height="7.959"/>
		<g>
			<path fill="none" stroke="#000000" stroke-miterlimit="10" d="M1143.92,251.123c0,0,27.996-14.091,37.968-48.139"/>
			<g>
				<polygon points="1184.009,204.362 1182.822,199.52 1179.221,202.969 				"/>
			</g>
		</g>
		<line fill="none" x1="1272.799" y1="108.93" x2="1273.895" y2="108.93"/>
		<line fill="none" x1="1272.799" y1="92.978" x2="1273.895" y2="92.978"/>
		
			<line fill="none" stroke="#FFFFFF" stroke-width="2" stroke-linecap="round" stroke-miterlimit="10" x1="1289.312" y1="102.289" x2="1278.351" y2="104.045"/>
		
			<line fill="none" stroke="#FFFFFF" stroke-width="2" stroke-linecap="round" stroke-miterlimit="10" x1="1300.272" y1="99.92" x2="1289.312" y2="102.289"/>
		
			<line fill="none" stroke="#FFFFFF" stroke-width="2" stroke-linecap="round" stroke-miterlimit="10" x1="1311.233" y1="100.922" x2="1300.272" y2="99.92"/>
		
			<line fill="none" stroke="#000000" stroke-width="2" stroke-linecap="round" stroke-miterlimit="10" x1="1222.242" y1="347.404" x2="1211.282" y2="348.419"/>
		
			<line fill="none" stroke="#000000" stroke-width="2" stroke-linecap="round" stroke-miterlimit="10" x1="1233.203" y1="345.871" x2="1222.242" y2="347.404"/>
		
			<line fill="none" stroke="#000000" stroke-width="2" stroke-linecap="round" stroke-miterlimit="10" x1="1244.163" y1="350.508" x2="1233.203" y2="345.871"/>
		<line fill="none" x1="1178.973" y1="217.197" x2="1222.814" y2="217.197"/>
		<line fill="none" x1="1178.973" y1="217.197" x2="1178.973" y2="216.4"/>
		<line fill="none" x1="1189.933" y1="217.197" x2="1189.933" y2="216.4"/>
		<line fill="none" x1="1200.894" y1="217.197" x2="1200.894" y2="216.4"/>
		<line fill="none" x1="1211.854" y1="217.197" x2="1211.854" y2="216.4"/>
		<line fill="none" x1="1222.814" y1="217.197" x2="1222.814" y2="216.4"/>
		<line fill="none" x1="1178.973" y1="217.197" x2="1180.069" y2="217.197"/>
		<line fill="none" x1="1178.973" y1="206.563" x2="1180.069" y2="206.563"/>
		<line fill="none" x1="1178.973" y1="195.928" x2="1180.069" y2="195.928"/>
		
			<line fill="none" stroke="#000000" stroke-width="2" stroke-linecap="round" stroke-miterlimit="10" x1="1195.413" y1="192.916" x2="1184.453" y2="195.464"/>
		
			<line fill="none" stroke="#000000" stroke-width="2" stroke-linecap="round" stroke-miterlimit="10" x1="1206.374" y1="192.406" x2="1195.413" y2="192.916"/>
		
			<line fill="none" stroke="#000000" stroke-width="2" stroke-linecap="round" stroke-miterlimit="10" x1="1217.334" y1="193.983" x2="1206.374" y2="192.406"/>
		<line fill="none" x1="1313.501" y1="255.339" x2="1314.597" y2="255.339"/>
		
			<line fill="none" stroke="#000000" stroke-width="2" stroke-linecap="round" stroke-miterlimit="10" x1="1329.942" y1="261.626" x2="1318.981" y2="263.871"/>
		
			<line fill="none" stroke="#000000" stroke-width="2" stroke-linecap="round" stroke-miterlimit="10" x1="1340.902" y1="260.872" x2="1329.942" y2="261.626"/>
		
			<line fill="none" stroke="#000000" stroke-width="2" stroke-linecap="round" stroke-miterlimit="10" x1="1351.862" y1="262.263" x2="1340.902" y2="260.872"/>
		<line fill="none" x1="1036.917" y1="375.181" x2="1038.013" y2="375.181"/>
		
			<line fill="none" stroke="#000000" stroke-width="2" stroke-linecap="round" stroke-miterlimit="10" x1="1075.278" y1="382.875" x2="1064.318" y2="385.242"/>
		<rect x="21.325" y="121.558" fill="#A66120" width="29.564" height="7.959"/>
		<rect x="50.889" y="121.558" fill="#E3C477" width="29.564" height="7.959"/>
		<rect x="110.301" y="121.558" fill="#80CDC1" width="29.564" height="7.959"/>
		<rect x="80.452" y="121.558" fill="#E8E8E8" width="29.564" height="7.959"/>
		<rect x="139.58" y="121.558" fill="#3E8571" width="29.564" height="7.959"/>
		<g>
			<path fill="none" stroke="#000000" stroke-miterlimit="10" d="M245.38,285.242c0,0,46.03-3.908,70.597-38.183"/>
			<g>
				<polygon points="317.608,249.065 317.998,244.094 313.498,246.241 				"/>
			</g>
		</g>
		<line fill="none" x1="409.602" y1="142.126" x2="410.698" y2="142.126"/>
		<line fill="none" x1="409.602" y1="126.175" x2="410.698" y2="126.175"/>
		
			<line fill="none" stroke="#FFFFFF" stroke-width="2" stroke-linecap="round" stroke-miterlimit="10" x1="426.114" y1="135.486" x2="415.154" y2="137.241"/>
		
			<line fill="none" stroke="#FFFFFF" stroke-width="2" stroke-linecap="round" stroke-miterlimit="10" x1="437.075" y1="133.117" x2="426.114" y2="135.486"/>
		
			<line fill="none" stroke="#FFFFFF" stroke-width="2" stroke-linecap="round" stroke-miterlimit="10" x1="448.035" y1="134.119" x2="437.075" y2="133.117"/>
		
			<line fill="none" stroke="#000000" stroke-width="2" stroke-linecap="round" stroke-miterlimit="10" x1="338.619" y1="426.714" x2="327.658" y2="427.729"/>
		
			<line fill="none" stroke="#000000" stroke-width="2" stroke-linecap="round" stroke-miterlimit="10" x1="349.579" y1="425.181" x2="338.619" y2="426.714"/>
		
			<line fill="none" stroke="#000000" stroke-width="2" stroke-linecap="round" stroke-miterlimit="10" x1="360.54" y1="429.818" x2="349.579" y2="425.181"/>
		<line fill="none" x1="314.867" y1="257.226" x2="314.867" y2="256.428"/>
		<line fill="none" x1="314.867" y1="257.226" x2="314.867" y2="225.323"/>
		<line fill="none" x1="314.867" y1="257.226" x2="315.963" y2="257.226"/>
		<line fill="none" x1="314.867" y1="246.591" x2="315.963" y2="246.591"/>
		<line fill="none" x1="314.867" y1="235.957" x2="315.963" y2="235.957"/>
		<line fill="none" x1="314.867" y1="225.323" x2="315.963" y2="225.323"/>
		
			<line fill="none" stroke="#000000" stroke-width="2" stroke-linecap="round" stroke-miterlimit="10" x1="331.308" y1="232.945" x2="320.347" y2="235.492"/>
		
			<line fill="none" stroke="#000000" stroke-width="2" stroke-linecap="round" stroke-miterlimit="10" x1="342.268" y1="232.435" x2="331.308" y2="232.945"/>
		
			<line fill="none" stroke="#000000" stroke-width="2" stroke-linecap="round" stroke-miterlimit="10" x1="353.229" y1="234.012" x2="342.268" y2="232.435"/>
		<line fill="none" x1="468.313" y1="318.349" x2="469.409" y2="318.349"/>
		
			<line fill="none" stroke="#000000" stroke-width="2" stroke-linecap="round" stroke-miterlimit="10" x1="484.754" y1="324.635" x2="473.794" y2="326.88"/>
		
			<line fill="none" stroke="#000000" stroke-width="2" stroke-linecap="round" stroke-miterlimit="10" x1="495.715" y1="323.881" x2="484.754" y2="324.635"/>
		
			<line fill="none" stroke="#000000" stroke-width="2" stroke-linecap="round" stroke-miterlimit="10" x1="506.675" y1="325.272" x2="495.715" y2="323.881"/>
		<path fill="#AFAFAF" d="M143.696,507.473"/>
		
			<line fill="none" stroke="#000000" stroke-width="2" stroke-linecap="round" stroke-miterlimit="10" x1="154.656" y1="505.105" x2="143.696" y2="507.473"/>
	</g>
	<g id="step2_1_">
		<rect x="194.133" y="73.032" fill="#F9D687" width="60.317" height="180.312"/>
		
		
		<line stroke="#000000" stroke-miterlimit="10" x1="1949.607" y1="196.204" x2="2132.576" y2="196.204"/>
		<line x1="1949.607" y1="196.204" x2="1949.607" y2="192.953"/>
		<line fill="none" x1="1994.281" y1="196.204" x2="1994.281" y2="192.953"/>
		<line fill="none" x1="2038.956" y1="196.204" x2="2038.956" y2="192.953"/>
		<line fill="none" x1="2083.63" y1="196.204" x2="2083.63" y2="192.953"/>
		<line fill="none" stroke="#000000" stroke-miterlimit="10" x1="1949.607" y1="196.693" x2="1949.607" y2="44.311"/>
		<line fill="none" x1="1949.607" y1="196.204" x2="1954.075" y2="196.204"/>
		<line fill="none" x1="1949.607" y1="131.186" x2="1954.075" y2="131.186"/>
		<line fill="none" x1="1949.607" y1="43.822" x2="1954.075" y2="43.822"/>
		
			<line fill="none" stroke="#000000" stroke-width="2" stroke-linecap="round" stroke-miterlimit="10" x1="2016.619" y1="79.506" x2="1971.944" y2="83.644"/>
		
			<line fill="none" stroke="#000000" stroke-width="2" stroke-linecap="round" stroke-miterlimit="10" x1="2061.293" y1="73.259" x2="2016.619" y2="79.506"/>
		
			<line fill="none" stroke="#000000" stroke-width="2" stroke-linecap="round" stroke-miterlimit="10" x1="2105.968" y1="92.158" x2="2061.293" y2="73.259"/>
		<line stroke="#000000" stroke-miterlimit="10" x1="46.166" y1="253.344" x2="276.912" y2="253.344"/>
		<line x1="46.166" y1="253.344" x2="46.166" y2="249.037"/>
		<line fill="none" x1="105.353" y1="253.344" x2="105.353" y2="249.037"/>
		<line fill="none" x1="164.539" y1="253.344" x2="164.539" y2="249.037"/>
		<line fill="none" x1="223.726" y1="253.344" x2="223.726" y2="249.037"/>
		<line fill="none" x1="276.912" y1="253.344" x2="276.912" y2="249.037"/>
		<line fill="none" stroke="#000000" stroke-miterlimit="10" x1="46.166" y1="253.992" x2="46.166" y2="81.716"/>
		<line fill="none" x1="46.166" y1="253.344" x2="52.085" y2="253.344"/>
		<line fill="none" x1="46.166" y1="167.206" x2="52.085" y2="167.206"/>
		<line fill="none" x1="46.166" y1="81.068" x2="52.085" y2="81.068"/>
		
			<line fill="none" stroke="#000000" stroke-width="2" stroke-linecap="round" stroke-miterlimit="10" x1="134.946" y1="98.739" x2="75.76" y2="104.22"/>
		
			<line fill="none" stroke="#000000" stroke-width="2" stroke-linecap="round" stroke-miterlimit="10" x1="194.133" y1="90.462" x2="134.946" y2="98.739"/>
		
			<line fill="none" stroke="#000000" stroke-width="2" stroke-linecap="round" stroke-miterlimit="10" x1="253.319" y1="115.501" x2="194.133" y2="90.462"/>
		<line stroke="#000000" stroke-miterlimit="10" x1="995.036" y1="197.743" x2="1188.482" y2="197.743"/>
		<line x1="995.036" y1="197.743" x2="995.036" y2="194.132"/>
		<line fill="none" x1="1044.655" y1="197.743" x2="1044.655" y2="194.132"/>
		<line fill="none" x1="1094.274" y1="197.743" x2="1094.274" y2="194.132"/>
		<line fill="none" x1="1143.893" y1="197.743" x2="1143.893" y2="194.132"/>
		<line fill="none" x1="1188.482" y1="197.743" x2="1188.482" y2="194.132"/>
		
			<line fill="none" stroke="#000000" stroke-width="2" stroke-linecap="round" stroke-miterlimit="10" x1="1069.464" y1="68.129" x2="1019.846" y2="72.725"/>
		
			<line fill="none" stroke="#000000" stroke-width="2" stroke-linecap="round" stroke-miterlimit="10" x1="1119.083" y1="61.191" x2="1069.464" y2="68.129"/>
		
			<line fill="none" stroke="#000000" stroke-width="2" stroke-linecap="round" stroke-miterlimit="10" x1="1168.702" y1="82.182" x2="1119.083" y2="61.191"/>
		<line fill="none" stroke="#000000" stroke-miterlimit="10" x1="995.036" y1="198.286" x2="995.036" y2="53.858"/>
	</g>
	<g id="step3_1_">
		<rect x="1971.434" y="89.637" fill="#A66120" width="10.347" height="2.786"/>
		<rect x="1981.782" y="89.637" fill="#CC8956" width="10.347" height="2.786"/>
		<rect x="2023.22" y="89.637" fill="#63CEAA" width="10.347" height="2.786"/>
		<rect x="2002.576" y="89.637" fill="#E8E8E8" width="10.347" height="2.786"/>
		<polyline fill="#3E8571" points="2043.815,92.423 2033.468,92.423 2033.468,89.637 2043.815,89.637 		"/>
		<rect x="1992.129" y="89.637" fill="#E3C477" width="10.347" height="2.786"/>
		<rect x="2012.823" y="89.637" fill="#80CDC1" width="10.347" height="2.786"/>
		<line fill="none" x1="1916.466" y1="250.572" x2="1916.42" y2="148.018"/>
		<rect x="2018.136" y="107.875" fill="#E3C477" width="26.913" height="7.4"/>
		<rect x="2033.317" y="124.154" fill="#CC8956" width="11.733" height="7.4"/>
		<rect x="2033.951" y="140.432" fill="#E3C477" width="11.099" height="7.4"/>
		<rect x="2034.493" y="156.711" fill="#CC8956" width="10.557" height="7.4"/>
		<rect x="2035.976" y="175.989" fill="#CC8956" width="9.073" height="7.4"/>
		<rect x="1918.862" y="199.494" fill="#80CDC1" width="36.583" height="7.4"/>
		<rect x="1918.862" y="215.773" fill="#3E8571" width="7.563" height="7.4"/>
		<rect x="1918.862" y="232.051" fill="#63CEAA" width="4.954" height="7.4"/>
		<rect x="1918.862" y="249.33" fill="#80CDC1" width="2.579" height="7.4"/>
		<rect x="1918.862" y="265.608" fill="#80CDC1" width="2.543" height="7.4"/>
		<rect x="1019.641" y="80.693" fill="#A66120" width="20.695" height="5.572"/>
		<rect x="1040.336" y="80.693" fill="#CC8956" width="20.695" height="5.572"/>
		<rect x="1123.213" y="80.693" fill="#63CEAA" width="20.695" height="5.572"/>
		<rect x="1081.924" y="80.692" fill="#E8E8E8" width="20.695" height="5.572"/>
		<rect x="1143.708" y="80.693" fill="#3E8571" width="20.695" height="5.572"/>
		<rect x="1061.03" y="80.692" fill="#E3C477" width="20.695" height="5.572"/>
		<rect x="1102.419" y="80.693" fill="#80CDC1" width="20.695" height="5.572"/>
		<line fill="none" x1="1058.223" y1="295.464" x2="1156.42" y2="295.464"/>
		<line fill="none" x1="1101.866" y1="295.464" x2="1101.866" y2="148.629"/>
		<rect x="1063.419" y="106.685" fill="#E3C477" width="38.447" height="10.572"/>
		<rect x="1085.105" y="126.368" fill="#CC8956" width="16.761" height="10.572"/>
		<rect x="1086.01" y="146.052" fill="#E3C477" width="15.856" height="10.572"/>
		<rect x="1086.785" y="164.735" fill="#CC8956" width="15.081" height="10.572"/>
		<rect x="1088.904" y="184.419" fill="#CC8956" width="12.962" height="10.572"/>
		<rect x="1101.866" y="204.102" fill="#80CDC1" width="52.262" height="10.572"/>
		<rect x="1101.866" y="223.786" fill="#3E8571" width="10.805" height="10.572"/>
		<rect x="1101.866" y="243.469" fill="#63CEAA" width="7.078" height="10.572"/>
		<rect x="1101.866" y="263.153" fill="#80CDC1" width="3.685" height="10.572"/>
		<rect x="1101.866" y="282.836" fill="#80CDC1" width="3.632" height="10.572"/>
		<rect x="69.194" y="92.073" fill="#A66120" width="20.695" height="5.572"/>
		<rect x="89.888" y="92.073" fill="#CC8956" width="20.695" height="5.572"/>
		<rect x="172.766" y="92.073" fill="#63CEAA" width="20.695" height="5.572"/>
		<rect x="131.477" y="92.073" fill="#E8E8E8" width="20.695" height="5.572"/>
		<rect x="193.261" y="92.073" fill="#3E8571" width="20.695" height="5.572"/>
		<rect x="110.583" y="92.073" fill="#E3C477" width="20.695" height="5.572"/>
		<rect x="151.972" y="92.073" fill="#80CDC1" width="20.695" height="5.572"/>
		<line fill="none" x1="104.197" y1="338.075" x2="226.943" y2="338.075"/>
		<line fill="none" x1="158.751" y1="338.075" x2="158.751" y2="191.24"/>
		<rect x="110.691" y="117.295" fill="#E3C477" width="48.059" height="10.572"/>
		<rect x="137.799" y="139.979" fill="#CC8956" width="20.951" height="10.572"/>
		<rect x="138.931" y="162.662" fill="#E3C477" width="19.819" height="10.572"/>
		<rect x="139.9" y="185.346" fill="#CC8956" width="18.851" height="10.572"/>
		<rect x="142.548" y="208.029" fill="#CC8956" width="16.203" height="10.572"/>
		<rect x="158.751" y="232.713" fill="#80CDC1" width="65.327" height="10.572"/>
		<rect x="158.751" y="255.396" fill="#3E8571" width="13.506" height="10.572"/>
		<rect x="158.751" y="278.08" fill="#63CEAA" width="8.847" height="10.572"/>
		<rect x="158.751" y="301.763" fill="#80CDC1" width="4.606" height="10.572"/>
		<rect x="158.751" y="325.447" fill="#80CDC1" width="4.54" height="10.572"/>
	</g>
</g>
<style>
#g-map-medium-interactions-img rect, #g-map-medium-interactions-img circle, #g-map-medium-interactions-img path, #g-map-medium-interactions-img line, #g-map-medium-interactions-img polyline, #g-map-medium-interactions-img polygon { vector-effect: non-scaling-stroke; }
</style>
</svg>

