<?xml version="1.0" encoding="utf-8"?>
<!-- Generator: Adobe Illustrator 24.1.0, SVG Export Plug-In . SVG Version: 6.00 Build 0)  -->
<svg version="1.2" baseProfile="tiny" id="g-map-mobile-interactions-img" xmlns="http://www.w3.org/2000/svg" xmlns:xlink="http://www.w3.org/1999/xlink"
	 x="0px" y="0px" viewBox="0 0 375 365.156" xml:space="preserve">
<g>
	<g id="step1_1_">
		<g id="base-legend_6_">
			<rect x="19.851" y="28.059" fill="#A66120" width="29.564" height="7.959"/>
			<rect x="49.415" y="28.059" fill="#E3C477" width="29.564" height="7.959"/>
			<rect x="108.827" y="28.059" fill="#80CDC1" width="29.564" height="7.959"/>
			<rect x="78.978" y="28.059" fill="#E8E8E8" width="29.564" height="7.959"/>
			<rect x="138.105" y="28.059" fill="#3E8571" width="29.564" height="7.959"/>
		</g>
		<g id="annotation_6_">
			<g>
				<path fill="none" stroke="#000000" stroke-miterlimit="10" d="M85.544,165.314c0,0,53.815,48.386,119.191,14.921"/>
				<g>
					<polygon points="205.2,182.741 207.905,178.553 202.925,178.304 					"/>
				</g>
			</g>
		</g>
		<g>
			<line fill="none" x1="272.393" y1="178.553" x2="316.235" y2="178.553"/>
			<g>
				<g>
					<line fill="none" x1="272.393" y1="178.553" x2="272.393" y2="177.755"/>
					<line fill="none" x1="283.353" y1="178.553" x2="283.353" y2="177.755"/>
					<line fill="none" x1="294.314" y1="178.553" x2="294.314" y2="177.755"/>
					<line fill="none" x1="305.274" y1="178.553" x2="305.274" y2="177.755"/>
					<line fill="none" x1="316.235" y1="178.553" x2="316.235" y2="177.755"/>
				</g>
			</g>
		</g>
		<g>
			<g>
				
					<text transform="matrix(1 0 0 1 270.4443 178.4785)" display="none" fill="none" font-family="'Lato-Bold'" font-size="2.0551px">0</text>
			</g>
			<g>
				<g>
					<line fill="none" x1="272.321" y1="177.708" x2="273.417" y2="177.708"/>
					<line fill="none" x1="272.221" y1="139.954" x2="273.317" y2="139.954"/>
				</g>
			</g>
		</g>
		<g>
			<g>
				<g>
					
						<line fill="none" stroke="#FFFFFF" stroke-width="2" stroke-linecap="round" stroke-miterlimit="10" x1="288.733" y1="149.266" x2="277.772" y2="151.021"/>
					
						<line fill="none" stroke="#FFFFFF" stroke-width="2" stroke-linecap="round" stroke-miterlimit="10" x1="299.693" y1="146.897" x2="288.733" y2="149.266"/>
					
						<line fill="none" stroke="#FFFFFF" stroke-width="2" stroke-linecap="round" stroke-miterlimit="10" x1="310.654" y1="147.899" x2="299.693" y2="146.897"/>
				</g>
			</g>
		</g>
		<g>
			<g>
				<g>
					
						<line fill="none" stroke="#000000" stroke-width="2" stroke-linecap="round" stroke-miterlimit="10" x1="242.455" y1="283.749" x2="231.494" y2="284.764"/>
					
						<line fill="none" stroke="#000000" stroke-width="2" stroke-linecap="round" stroke-miterlimit="10" x1="253.415" y1="282.217" x2="242.455" y2="283.749"/>
					
						<line fill="none" stroke="#000000" stroke-width="2" stroke-linecap="round" stroke-miterlimit="10" x1="264.376" y1="286.853" x2="253.415" y2="282.217"/>
				</g>
			</g>
		</g>
		<g>
			<g>
				<g>
					<line fill="none" x1="246.859" y1="156.779" x2="246.859" y2="155.981"/>
					<line fill="none" x1="257.819" y1="156.779" x2="257.819" y2="155.981"/>
				</g>
			</g>
		</g>
		<g>
			<g>
				<g>
					
						<line fill="none" stroke="#000000" stroke-width="2" stroke-linecap="round" stroke-miterlimit="10" x1="224.186" y1="190.047" x2="213.226" y2="192.594"/>
					
						<line fill="none" stroke="#000000" stroke-width="2" stroke-linecap="round" stroke-miterlimit="10" x1="235.147" y1="189.537" x2="224.186" y2="190.047"/>
					
						<line fill="none" stroke="#000000" stroke-width="2" stroke-linecap="round" stroke-miterlimit="10" x1="246.107" y1="191.114" x2="235.147" y2="189.537"/>
				</g>
			</g>
		</g>
		<g>
			<g>
				<g>
					
						<line fill="none" stroke="#000000" stroke-width="2" stroke-linecap="round" stroke-miterlimit="10" x1="305.3" y1="234.488" x2="294.339" y2="236.733"/>
					
						<line fill="none" stroke="#000000" stroke-width="2" stroke-linecap="round" stroke-miterlimit="10" x1="316.26" y1="233.734" x2="305.3" y2="234.488"/>
					
						<line fill="none" stroke="#000000" stroke-width="2" stroke-linecap="round" stroke-miterlimit="10" x1="327.221" y1="235.125" x2="316.26" y2="233.734"/>
				</g>
			</g>
		</g>
		<g>
			<g>
				<g>
					<path fill="none" d="M154.184,307.528"/>
					
						<line fill="none" stroke="#000000" stroke-width="2" stroke-linecap="round" stroke-miterlimit="10" x1="165.145" y1="305.161" x2="154.184" y2="307.528"/>
				</g>
			</g>
		</g>
		<g id="step1-inside2_1_">
			<g id="base-legend_5_">
				<rect x="-932.344" y="28.368" fill="#A66120" width="29.564" height="7.959"/>
				<rect x="-902.781" y="28.368" fill="#E3C477" width="29.564" height="7.959"/>
				<rect x="-843.368" y="28.368" fill="#80CDC1" width="29.564" height="7.959"/>
				<rect x="-873.217" y="28.368" fill="#E8E8E8" width="29.564" height="7.959"/>
				<rect x="-814.09" y="28.368" fill="#3E8571" width="29.564" height="7.959"/>
			</g>
			<g id="annotation_5_">
				<g>
					<path fill="none" stroke="#000000" stroke-miterlimit="10" d="M-774.221,249.551c0,0,35.03-12.881,48.765-46.674"/>
					<g>
						<polygon points="-723.414,204.445 -724.188,199.52 -728.067,202.652 						"/>
					</g>
				</g>
			</g>
			<g>
				<g>
					<g>
						<line fill="none" x1="-634.211" y1="108.93" x2="-633.115" y2="108.93"/>
						<line fill="none" x1="-634.211" y1="92.978" x2="-633.115" y2="92.978"/>
					</g>
				</g>
			</g>
			<g>
				<g>
					<g>
						
							<line fill="none" stroke="#FFFFFF" stroke-width="2" stroke-linecap="round" stroke-miterlimit="10" x1="-617.698" y1="102.289" x2="-628.659" y2="104.045"/>
						
							<line fill="none" stroke="#FFFFFF" stroke-width="2" stroke-linecap="round" stroke-miterlimit="10" x1="-606.738" y1="99.92" x2="-617.698" y2="102.289"/>
						
							<line fill="none" stroke="#FFFFFF" stroke-width="2" stroke-linecap="round" stroke-miterlimit="10" x1="-595.777" y1="100.922" x2="-606.738" y2="99.92"/>
					</g>
				</g>
			</g>
			<g>
				<g>
					<g>
						<line fill="none" x1="-665.191" y1="358.943" x2="-665.191" y2="358.146"/>
					</g>
				</g>
			</g>
			<g>
				<g>
					<g>
						
							<line fill="none" stroke="#000000" stroke-width="2" stroke-linecap="round" stroke-miterlimit="10" x1="-684.768" y1="347.404" x2="-695.728" y2="348.419"/>
						
							<line fill="none" stroke="#000000" stroke-width="2" stroke-linecap="round" stroke-miterlimit="10" x1="-673.807" y1="345.871" x2="-684.768" y2="347.404"/>
						
							<line fill="none" stroke="#000000" stroke-width="2" stroke-linecap="round" stroke-miterlimit="10" x1="-662.847" y1="350.508" x2="-673.807" y2="345.871"/>
					</g>
				</g>
			</g>
			<g>
				<line fill="none" x1="-728.037" y1="217.197" x2="-684.196" y2="217.197"/>
				<g>
					<g>
						<line fill="none" x1="-728.037" y1="217.197" x2="-728.037" y2="216.4"/>
						<line fill="none" x1="-717.077" y1="217.197" x2="-717.077" y2="216.4"/>
						<line fill="none" x1="-706.117" y1="217.197" x2="-706.117" y2="216.4"/>
						<line fill="none" x1="-695.156" y1="217.197" x2="-695.156" y2="216.4"/>
						<line fill="none" x1="-684.196" y1="217.197" x2="-684.196" y2="216.4"/>
					</g>
				</g>
			</g>
			<g>
				<g>
					<text transform="matrix(1 0 0 1 -737.5279 217.9676)" fill="none" font-family="'Lato-Bold'" font-size="2.0551px">0.000000</text>
				</g>
				<g>
					<g>
						<line fill="none" x1="-728.037" y1="217.197" x2="-726.941" y2="217.197"/>
						<line fill="none" x1="-728.037" y1="206.563" x2="-726.941" y2="206.563"/>
						<line fill="none" x1="-728.037" y1="195.928" x2="-726.941" y2="195.928"/>
					</g>
				</g>
			</g>
			<g>
				<g>
					<g>
						
							<line fill="none" stroke="#000000" stroke-width="2" stroke-linecap="round" stroke-miterlimit="10" x1="-711.597" y1="192.916" x2="-722.557" y2="195.464"/>
						
							<line fill="none" stroke="#000000" stroke-width="2" stroke-linecap="round" stroke-miterlimit="10" x1="-700.636" y1="192.406" x2="-711.597" y2="192.916"/>
						
							<line fill="none" stroke="#000000" stroke-width="2" stroke-linecap="round" stroke-miterlimit="10" x1="-689.676" y1="193.983" x2="-700.636" y2="192.406"/>
					</g>
				</g>
			</g>
			<g>
				<g>
					<g>
						<line fill="none" x1="-593.509" y1="255.339" x2="-592.413" y2="255.339"/>
					</g>
				</g>
			</g>
			<g>
				<g>
					<g>
						
							<line fill="none" stroke="#000000" stroke-width="2" stroke-linecap="round" stroke-miterlimit="10" x1="-577.068" y1="261.626" x2="-588.029" y2="263.871"/>
						
							<line fill="none" stroke="#000000" stroke-width="2" stroke-linecap="round" stroke-miterlimit="10" x1="-566.108" y1="260.872" x2="-577.068" y2="261.626"/>
						
							<line fill="none" stroke="#000000" stroke-width="2" stroke-linecap="round" stroke-miterlimit="10" x1="-555.148" y1="262.263" x2="-566.108" y2="260.872"/>
					</g>
				</g>
			</g>
			<g>
				<g>
					<g>
						<line fill="none" x1="-870.093" y1="375.181" x2="-868.997" y2="375.181"/>
					</g>
				</g>
			</g>
			<g>
				<g>
					<g>
						
							<line fill="none" stroke="#000000" stroke-width="2" stroke-linecap="round" stroke-miterlimit="10" x1="-831.732" y1="382.875" x2="-842.692" y2="385.242"/>
					</g>
				</g>
			</g>
		</g>
		<g id="step1-inside_1_">
			<g id="base-legend_4_">
				<rect x="-1881.895" y="45.027" fill="#A66120" width="29.564" height="7.959"/>
				<rect x="-1852.331" y="45.027" fill="#E3C477" width="29.564" height="7.959"/>
				<rect x="-1792.919" y="45.027" fill="#80CDC1" width="29.564" height="7.959"/>
				<rect x="-1822.768" y="45.027" fill="#E8E8E8" width="29.564" height="7.959"/>
				<rect x="-1763.641" y="45.027" fill="#3E8571" width="29.564" height="7.959"/>
			</g>
			<g id="annotation_4_">
				<g>
					<path fill="none" stroke="#000000" stroke-miterlimit="10" d="M-1661.63,285.242c0,0,46.03-3.908,70.597-38.183"/>
					<g>
						<polygon points="-1589.402,249.065 -1589.012,244.094 -1593.512,246.241 						"/>
					</g>
				</g>
			</g>
			<g>
				<g>
					<g>
						<line fill="none" x1="-1497.408" y1="142.126" x2="-1496.312" y2="142.126"/>
						<line fill="none" x1="-1497.408" y1="126.175" x2="-1496.312" y2="126.175"/>
					</g>
				</g>
			</g>
			<g>
				<g>
					<g>
						
							<line fill="none" stroke="#FFFFFF" stroke-width="2" stroke-linecap="round" stroke-miterlimit="10" x1="-1480.896" y1="135.486" x2="-1491.856" y2="137.241"/>
						
							<line fill="none" stroke="#FFFFFF" stroke-width="2" stroke-linecap="round" stroke-miterlimit="10" x1="-1469.935" y1="133.117" x2="-1480.896" y2="135.486"/>
						
							<line fill="none" stroke="#FFFFFF" stroke-width="2" stroke-linecap="round" stroke-miterlimit="10" x1="-1458.975" y1="134.119" x2="-1469.935" y2="133.117"/>
					</g>
				</g>
			</g>
			<g>
				<g>
					<g>
						
							<line fill="none" stroke="#000000" stroke-width="2" stroke-linecap="round" stroke-miterlimit="10" x1="-1568.391" y1="426.714" x2="-1579.352" y2="427.729"/>
						
							<line fill="none" stroke="#000000" stroke-width="2" stroke-linecap="round" stroke-miterlimit="10" x1="-1557.431" y1="425.181" x2="-1568.391" y2="426.714"/>
						
							<line fill="none" stroke="#000000" stroke-width="2" stroke-linecap="round" stroke-miterlimit="10" x1="-1546.47" y1="429.818" x2="-1557.431" y2="425.181"/>
					</g>
				</g>
			</g>
			<g>
				<g>
					<g>
						<line fill="none" x1="-1592.143" y1="257.226" x2="-1592.143" y2="256.428"/>
					</g>
				</g>
			</g>
			<g>
				<line fill="none" x1="-1592.143" y1="257.226" x2="-1592.143" y2="225.323"/>
				<g>
					<g>
						<line fill="none" x1="-1592.143" y1="257.226" x2="-1591.047" y2="257.226"/>
						<line fill="none" x1="-1592.143" y1="246.591" x2="-1591.047" y2="246.591"/>
						<line fill="none" x1="-1592.143" y1="235.957" x2="-1591.047" y2="235.957"/>
						<line fill="none" x1="-1592.143" y1="225.323" x2="-1591.047" y2="225.323"/>
					</g>
				</g>
			</g>
			<g>
				<g>
					<g>
						
							<line fill="none" stroke="#000000" stroke-width="2" stroke-linecap="round" stroke-miterlimit="10" x1="-1575.702" y1="232.945" x2="-1586.662" y2="235.492"/>
						
							<line fill="none" stroke="#000000" stroke-width="2" stroke-linecap="round" stroke-miterlimit="10" x1="-1564.742" y1="232.435" x2="-1575.702" y2="232.945"/>
						
							<line fill="none" stroke="#000000" stroke-width="2" stroke-linecap="round" stroke-miterlimit="10" x1="-1553.781" y1="234.012" x2="-1564.742" y2="232.435"/>
					</g>
				</g>
			</g>
			<g>
				<g>
					<g>
						<line fill="none" x1="-1438.697" y1="318.349" x2="-1437.6" y2="318.349"/>
					</g>
				</g>
			</g>
			<g>
				<g>
					<g>
						
							<line fill="none" stroke="#000000" stroke-width="2" stroke-linecap="round" stroke-miterlimit="10" x1="-1422.256" y1="324.635" x2="-1433.216" y2="326.88"/>
						
							<line fill="none" stroke="#000000" stroke-width="2" stroke-linecap="round" stroke-miterlimit="10" x1="-1411.295" y1="323.881" x2="-1422.256" y2="324.635"/>
						
							<line fill="none" stroke="#000000" stroke-width="2" stroke-linecap="round" stroke-miterlimit="10" x1="-1400.335" y1="325.272" x2="-1411.295" y2="323.881"/>
					</g>
				</g>
			</g>
			<g>
				<g>
					<g>
						<path fill="#AFAFAF" d="M-1763.314,507.473"/>
						
							<line fill="none" stroke="#000000" stroke-width="2" stroke-linecap="round" stroke-miterlimit="10" x1="-1752.354" y1="505.105" x2="-1763.314" y2="507.473"/>
					</g>
				</g>
			</g>
		</g>
	</g>
	<g id="step2_1_">
		
		
		
		<line stroke="#000000" stroke-miterlimit="10" x1="42.597" y1="196.204" x2="225.566" y2="196.204"/>
		<line x1="42.597" y1="196.204" x2="42.597" y2="192.953"/>
		<line fill="none" x1="87.272" y1="196.204" x2="87.272" y2="192.953"/>
		<line fill="none" x1="131.946" y1="196.204" x2="131.946" y2="192.953"/>
		<line fill="none" x1="176.62" y1="196.204" x2="176.62" y2="192.953"/>
		<line fill="none" stroke="#000000" stroke-miterlimit="10" x1="42.597" y1="196.693" x2="42.597" y2="44.311"/>
		<g>
			<g>
				<line fill="none" x1="42.597" y1="196.204" x2="47.065" y2="196.204"/>
				<line fill="none" x1="42.597" y1="131.186" x2="47.065" y2="131.186"/>
				<line fill="none" x1="42.597" y1="43.822" x2="47.065" y2="43.822"/>
			</g>
		</g>
		
			<line fill="none" stroke="#000000" stroke-width="2" stroke-linecap="round" stroke-miterlimit="10" x1="109.609" y1="79.506" x2="64.934" y2="83.644"/>
		
			<line fill="none" stroke="#000000" stroke-width="2" stroke-linecap="round" stroke-miterlimit="10" x1="154.283" y1="73.259" x2="109.609" y2="79.506"/>
		
			<line fill="none" stroke="#000000" stroke-width="2" stroke-linecap="round" stroke-miterlimit="10" x1="198.958" y1="92.158" x2="154.283" y2="73.259"/>
		<g>
			<line stroke="#000000" stroke-miterlimit="10" x1="-1860.844" y1="253.344" x2="-1630.098" y2="253.344"/>
			<g>
				<g>
					<line x1="-1860.844" y1="253.344" x2="-1860.844" y2="249.037"/>
					<line fill="none" x1="-1801.657" y1="253.344" x2="-1801.657" y2="249.037"/>
					<line fill="none" x1="-1742.471" y1="253.344" x2="-1742.471" y2="249.037"/>
					<line fill="none" x1="-1683.284" y1="253.344" x2="-1683.284" y2="249.037"/>
					<line fill="none" x1="-1630.098" y1="253.344" x2="-1630.098" y2="249.037"/>
				</g>
			</g>
		</g>
		<g>
			<line fill="none" stroke="#000000" stroke-miterlimit="10" x1="-1860.844" y1="253.992" x2="-1860.844" y2="81.716"/>
			<g>
				<g>
					<line fill="none" x1="-1860.844" y1="253.344" x2="-1854.925" y2="253.344"/>
					<line fill="none" x1="-1860.844" y1="167.206" x2="-1854.925" y2="167.206"/>
					<line fill="none" x1="-1860.844" y1="81.068" x2="-1854.925" y2="81.068"/>
				</g>
			</g>
		</g>
		<g>
			<g>
				<g>
					
						<line fill="none" stroke="#000000" stroke-width="2" stroke-linecap="round" stroke-miterlimit="10" x1="-1772.064" y1="98.739" x2="-1831.25" y2="104.22"/>
					
						<line fill="none" stroke="#000000" stroke-width="2" stroke-linecap="round" stroke-miterlimit="10" x1="-1712.877" y1="90.462" x2="-1772.064" y2="98.739"/>
					
						<line fill="none" stroke="#000000" stroke-width="2" stroke-linecap="round" stroke-miterlimit="10" x1="-1653.691" y1="115.501" x2="-1712.877" y2="90.462"/>
				</g>
			</g>
		</g>
		<g>
			<line stroke="#000000" stroke-miterlimit="10" x1="-911.974" y1="197.743" x2="-718.528" y2="197.743"/>
			<g>
				<g>
					<line x1="-911.974" y1="197.743" x2="-911.974" y2="194.132"/>
					<line fill="none" x1="-862.355" y1="197.743" x2="-862.355" y2="194.132"/>
					<line fill="none" x1="-812.736" y1="197.743" x2="-812.736" y2="194.132"/>
					<line fill="none" x1="-763.117" y1="197.743" x2="-763.117" y2="194.132"/>
					<line fill="none" x1="-718.528" y1="197.743" x2="-718.528" y2="194.132"/>
				</g>
			</g>
		</g>
		<g>
			<g>
				<g>
					
						<line fill="none" stroke="#000000" stroke-width="2" stroke-linecap="round" stroke-miterlimit="10" x1="-837.546" y1="68.129" x2="-887.164" y2="72.725"/>
					
						<line fill="none" stroke="#000000" stroke-width="2" stroke-linecap="round" stroke-miterlimit="10" x1="-787.927" y1="61.191" x2="-837.546" y2="68.129"/>
					
						<line fill="none" stroke="#000000" stroke-width="2" stroke-linecap="round" stroke-miterlimit="10" x1="-738.308" y1="82.182" x2="-787.927" y2="61.191"/>
				</g>
			</g>
		</g>
		<line fill="none" stroke="#000000" stroke-miterlimit="10" x1="-911.974" y1="198.286" x2="-911.974" y2="53.858"/>
	</g>
	<g id="step3_1_">
		<rect x="53.343" y="99.416" fill="#A66120" width="10.347" height="2.786"/>
		<rect x="63.69" y="99.416" fill="#CC8956" width="10.347" height="2.786"/>
		<rect x="105.129" y="99.416" fill="#63CEAA" width="10.347" height="2.786"/>
		<rect x="84.485" y="99.416" fill="#E8E8E8" width="10.347" height="2.786"/>
		<polyline fill="#3E8571" points="125.724,102.202 115.377,102.202 115.377,99.416 125.724,99.416 		"/>
		<rect x="74.038" y="99.416" fill="#E3C477" width="10.347" height="2.786"/>
		<rect x="94.732" y="99.416" fill="#80CDC1" width="10.347" height="2.786"/>
		<g>
			<line fill="none" x1="182.155" y1="224.227" x2="145.692" y2="228.94"/>
		</g>
		<g>
			<line fill="none" x1="107.551" y1="228.709" x2="107.504" y2="126.155"/>
		</g>
		<g>
			<g>
				<g>
					<rect x="82.591" y="126.594" fill="#E3C477" width="26.913" height="7.4"/>
					<rect x="97.771" y="136.873" fill="#CC8956" width="11.733" height="7.4"/>
					<rect x="98.405" y="147.151" fill="#E3C477" width="11.099" height="7.4"/>
					<rect x="98.948" y="157.43" fill="#CC8956" width="10.557" height="7.4"/>
					<rect x="100.431" y="167.708" fill="#CC8956" width="9.073" height="7.4"/>
					<rect x="109.946" y="179.632" fill="#80CDC1" width="36.583" height="7.4"/>
					<rect x="109.946" y="189.91" fill="#3E8571" width="7.563" height="7.4"/>
					<rect x="109.946" y="200.189" fill="#63CEAA" width="4.954" height="7.4"/>
					<rect x="109.946" y="210.467" fill="#80CDC1" width="2.579" height="7.4"/>
					<rect x="109.946" y="220.746" fill="#80CDC1" width="2.543" height="7.4"/>
				</g>
			</g>
		</g>
		<g id="step3-inside_1_">
			<rect x="-931.98" y="98.628" fill="#A66120" width="29.564" height="7.959"/>
			<rect x="-902.417" y="98.628" fill="#CC8956" width="29.564" height="7.959"/>
			<rect x="-784.02" y="98.628" fill="#63CEAA" width="29.564" height="7.959"/>
			<rect x="-843.004" y="98.628" fill="#E8E8E8" width="29.564" height="7.959"/>
			<rect x="-754.741" y="98.628" fill="#3E8571" width="29.564" height="7.959"/>
			<rect x="-872.853" y="98.628" fill="#E3C477" width="29.564" height="7.959"/>
			<rect x="-813.726" y="98.628" fill="#80CDC1" width="29.564" height="7.959"/>
			<g>
				<line fill="none" x1="-872.853" y1="276.08" x2="-774.656" y2="276.08"/>
			</g>
			<g>
				<line fill="none" x1="-829.21" y1="276.08" x2="-829.21" y2="129.245"/>
			</g>
			<g>
				<g>
					<g>
						<rect x="-867.657" y="131.3" fill="#E3C477" width="38.447" height="10.572"/>
						<rect x="-845.971" y="145.984" fill="#CC8956" width="16.761" height="10.572"/>
						<rect x="-845.065" y="160.667" fill="#E3C477" width="15.856" height="10.572"/>
						<rect x="-844.291" y="175.351" fill="#CC8956" width="15.081" height="10.572"/>
						<rect x="-842.172" y="190.034" fill="#CC8956" width="12.962" height="10.572"/>
						<rect x="-829.21" y="204.718" fill="#80CDC1" width="52.262" height="10.572"/>
						<rect x="-829.21" y="219.401" fill="#3E8571" width="10.805" height="10.572"/>
						<rect x="-829.21" y="234.085" fill="#63CEAA" width="7.078" height="10.572"/>
						<rect x="-829.21" y="248.768" fill="#80CDC1" width="3.685" height="10.572"/>
						<rect x="-829.21" y="263.452" fill="#80CDC1" width="3.632" height="10.572"/>
					</g>
				</g>
			</g>
			<g id="step3_3_">
				<rect x="-1884.669" y="103.14" fill="#A66120" width="29.564" height="7.959"/>
				<rect x="-1855.105" y="103.14" fill="#CC8956" width="29.564" height="7.959"/>
				<rect x="-1736.709" y="103.14" fill="#63CEAA" width="29.564" height="7.959"/>
				<rect x="-1795.693" y="103.14" fill="#E8E8E8" width="29.564" height="7.959"/>
				<rect x="-1707.43" y="103.14" fill="#3E8571" width="29.564" height="7.959"/>
				<rect x="-1825.542" y="103.14" fill="#E3C477" width="29.564" height="7.959"/>
				<rect x="-1766.415" y="103.14" fill="#80CDC1" width="29.564" height="7.959"/>
				<g>
					<line fill="none" x1="-1815.769" y1="280.557" x2="-1693.022" y2="280.557"/>
				</g>
				<g>
					<line fill="none" x1="-1761.215" y1="280.557" x2="-1761.215" y2="133.722"/>
				</g>
				<g>
					<g>
						<g>
							<rect x="-1809.274" y="135.778" fill="#E3C477" width="48.059" height="10.572"/>
							<rect x="-1782.166" y="150.461" fill="#CC8956" width="20.951" height="10.572"/>
							<rect x="-1781.034" y="165.145" fill="#E3C477" width="19.819" height="10.572"/>
							<rect x="-1780.066" y="179.828" fill="#CC8956" width="18.851" height="10.572"/>
							<rect x="-1777.417" y="194.512" fill="#CC8956" width="16.203" height="10.572"/>
							<rect x="-1761.215" y="209.195" fill="#80CDC1" width="65.327" height="10.572"/>
							<rect x="-1761.215" y="223.879" fill="#3E8571" width="13.506" height="10.572"/>
							<rect x="-1761.215" y="238.562" fill="#63CEAA" width="8.847" height="10.572"/>
							<rect x="-1761.215" y="253.245" fill="#80CDC1" width="4.606" height="10.572"/>
							<rect x="-1761.215" y="267.929" fill="#80CDC1" width="4.54" height="10.572"/>
						</g>
					</g>
				</g>
			</g>
		</g>
	</g>
</g>
<style>
#g-map-mobile-interactions-img rect, #g-map-mobile-interactions-img circle, #g-map-mobile-interactions-img path, #g-map-mobile-interactions-img line, #g-map-mobile-interactions-img polyline, #g-map-mobile-interactions-img polygon { vector-effect: non-scaling-stroke; }
</style>
</svg>

