<?xml version="1.0" encoding="utf-8"?>
<!-- Generator: Adobe Illustrator 24.1.0, SVG Export Plug-In . SVG Version: 6.00 Build 0)  -->
<svg version="1.2" baseProfile="tiny" id="g-map-laptop-interactions-img" xmlns="http://www.w3.org/2000/svg" xmlns:xlink="http://www.w3.org/1999/xlink"
	 x="0px" y="0px" viewBox="0 0 490 499.407" xml:space="preserve">
<g>
	<g id="step1_1_">
		<rect x="974.569" y="28.059" fill="#A66120" width="29.564" height="7.959"/>
		<rect x="1004.133" y="28.059" fill="#E3C477" width="29.564" height="7.959"/>
		<rect x="1063.545" y="28.059" fill="#80CDC1" width="29.564" height="7.959"/>
		<rect x="1033.696" y="28.059" fill="#E8E8E8" width="29.564" height="7.959"/>
		<rect x="1092.823" y="28.059" fill="#3E8571" width="29.564" height="7.959"/>
		<g>
			<path fill="none" stroke="#000000" stroke-miterlimit="10" d="M1040.262,165.314c0,0,53.815,48.386,119.191,14.921"/>
			<g>
				<polygon points="1159.918,182.741 1162.623,178.553 1157.643,178.304 				"/>
			</g>
		</g>
		<line fill="none" x1="1227.111" y1="178.553" x2="1270.953" y2="178.553"/>
		
			<line fill="none" stroke="#FFFFFF" stroke-width="2" stroke-linecap="round" stroke-miterlimit="10" x1="1243.451" y1="149.266" x2="1232.49" y2="151.021"/>
		
			<line fill="none" stroke="#FFFFFF" stroke-width="2" stroke-linecap="round" stroke-miterlimit="10" x1="1254.411" y1="146.897" x2="1243.451" y2="149.266"/>
		
			<line fill="none" stroke="#FFFFFF" stroke-width="2" stroke-linecap="round" stroke-miterlimit="10" x1="1265.372" y1="147.899" x2="1254.411" y2="146.897"/>
		
			<line fill="none" stroke="#000000" stroke-width="2" stroke-linecap="round" stroke-miterlimit="10" x1="1197.173" y1="283.749" x2="1186.212" y2="284.764"/>
		
			<line fill="none" stroke="#000000" stroke-width="2" stroke-linecap="round" stroke-miterlimit="10" x1="1208.133" y1="282.217" x2="1197.173" y2="283.749"/>
		
			<line fill="none" stroke="#000000" stroke-width="2" stroke-linecap="round" stroke-miterlimit="10" x1="1219.094" y1="286.853" x2="1208.133" y2="282.217"/>
		<line fill="none" x1="1201.577" y1="156.779" x2="1201.577" y2="155.981"/>
		<line fill="none" x1="1212.538" y1="156.779" x2="1212.538" y2="155.981"/>
		
			<line fill="none" stroke="#000000" stroke-width="2" stroke-linecap="round" stroke-miterlimit="10" x1="1178.904" y1="190.047" x2="1167.944" y2="192.594"/>
		
			<line fill="none" stroke="#000000" stroke-width="2" stroke-linecap="round" stroke-miterlimit="10" x1="1189.865" y1="189.537" x2="1178.904" y2="190.047"/>
		
			<line fill="none" stroke="#000000" stroke-width="2" stroke-linecap="round" stroke-miterlimit="10" x1="1200.825" y1="191.114" x2="1189.865" y2="189.537"/>
		
			<line fill="none" stroke="#000000" stroke-width="2" stroke-linecap="round" stroke-miterlimit="10" x1="1260.018" y1="234.488" x2="1249.057" y2="236.733"/>
		
			<line fill="none" stroke="#000000" stroke-width="2" stroke-linecap="round" stroke-miterlimit="10" x1="1270.978" y1="233.734" x2="1260.018" y2="234.488"/>
		
			<line fill="none" stroke="#000000" stroke-width="2" stroke-linecap="round" stroke-miterlimit="10" x1="1281.939" y1="235.125" x2="1270.978" y2="233.734"/>
		<path fill="none" d="M1108.902,307.528"/>
		
			<line fill="none" stroke="#000000" stroke-width="2" stroke-linecap="round" stroke-miterlimit="10" x1="1119.863" y1="305.161" x2="1108.902" y2="307.528"/>
		<rect x="22.374" y="28.368" fill="#A66120" width="29.564" height="7.959"/>
		<rect x="51.937" y="28.368" fill="#E3C477" width="29.564" height="7.959"/>
		<rect x="111.35" y="28.368" fill="#80CDC1" width="29.564" height="7.959"/>
		<rect x="81.501" y="28.368" fill="#E8E8E8" width="29.564" height="7.959"/>
		<rect x="140.628" y="28.368" fill="#3E8571" width="29.564" height="7.959"/>
		<g>
			<path fill="none" stroke="#000000" stroke-miterlimit="10" d="M180.497,249.551c0,0,35.03-12.881,48.765-46.674"/>
			<g>
				<polygon points="231.304,204.445 230.53,199.52 226.651,202.652 				"/>
			</g>
		</g>
		<line fill="none" x1="320.507" y1="108.93" x2="321.603" y2="108.93"/>
		<line fill="none" x1="320.507" y1="92.978" x2="321.603" y2="92.978"/>
		
			<line fill="none" stroke="#FFFFFF" stroke-width="2" stroke-linecap="round" stroke-miterlimit="10" x1="337.02" y1="102.289" x2="326.059" y2="104.045"/>
		
			<line fill="none" stroke="#FFFFFF" stroke-width="2" stroke-linecap="round" stroke-miterlimit="10" x1="347.98" y1="99.92" x2="337.02" y2="102.289"/>
		
			<line fill="none" stroke="#FFFFFF" stroke-width="2" stroke-linecap="round" stroke-miterlimit="10" x1="358.941" y1="100.922" x2="347.98" y2="99.92"/>
		
			<line fill="none" stroke="#000000" stroke-width="2" stroke-linecap="round" stroke-miterlimit="10" x1="269.95" y1="347.404" x2="258.99" y2="348.419"/>
		
			<line fill="none" stroke="#000000" stroke-width="2" stroke-linecap="round" stroke-miterlimit="10" x1="280.911" y1="345.871" x2="269.95" y2="347.404"/>
		
			<line fill="none" stroke="#000000" stroke-width="2" stroke-linecap="round" stroke-miterlimit="10" x1="291.871" y1="350.508" x2="280.911" y2="345.871"/>
		<line fill="none" x1="226.681" y1="217.197" x2="270.522" y2="217.197"/>
		<line fill="none" x1="226.681" y1="217.197" x2="226.681" y2="216.4"/>
		<line fill="none" x1="237.641" y1="217.197" x2="237.641" y2="216.4"/>
		<line fill="none" x1="248.602" y1="217.197" x2="248.602" y2="216.4"/>
		<line fill="none" x1="259.562" y1="217.197" x2="259.562" y2="216.4"/>
		<line fill="none" x1="270.522" y1="217.197" x2="270.522" y2="216.4"/>
		<line fill="none" x1="226.681" y1="217.197" x2="227.777" y2="217.197"/>
		<line fill="none" x1="226.681" y1="206.563" x2="227.777" y2="206.563"/>
		<line fill="none" x1="226.681" y1="195.928" x2="227.777" y2="195.928"/>
		
			<line fill="none" stroke="#000000" stroke-width="2" stroke-linecap="round" stroke-miterlimit="10" x1="243.121" y1="192.916" x2="232.161" y2="195.464"/>
		
			<line fill="none" stroke="#000000" stroke-width="2" stroke-linecap="round" stroke-miterlimit="10" x1="254.082" y1="192.406" x2="243.121" y2="192.916"/>
		
			<line fill="none" stroke="#000000" stroke-width="2" stroke-linecap="round" stroke-miterlimit="10" x1="265.042" y1="193.983" x2="254.082" y2="192.406"/>
		<line fill="none" x1="361.209" y1="255.339" x2="362.305" y2="255.339"/>
		
			<line fill="none" stroke="#000000" stroke-width="2" stroke-linecap="round" stroke-miterlimit="10" x1="377.65" y1="261.626" x2="366.689" y2="263.871"/>
		
			<line fill="none" stroke="#000000" stroke-width="2" stroke-linecap="round" stroke-miterlimit="10" x1="388.61" y1="260.872" x2="377.65" y2="261.626"/>
		
			<line fill="none" stroke="#000000" stroke-width="2" stroke-linecap="round" stroke-miterlimit="10" x1="399.571" y1="262.263" x2="388.61" y2="260.872"/>
		<line fill="none" x1="84.625" y1="375.181" x2="85.721" y2="375.181"/>
		
			<line fill="none" stroke="#000000" stroke-width="2" stroke-linecap="round" stroke-miterlimit="10" x1="122.986" y1="382.875" x2="112.026" y2="385.242"/>
		<rect x="-927.177" y="45.027" fill="#A66120" width="29.564" height="7.959"/>
		<rect x="-897.613" y="45.027" fill="#E3C477" width="29.564" height="7.959"/>
		<rect x="-838.201" y="45.027" fill="#80CDC1" width="29.564" height="7.959"/>
		<rect x="-868.049" y="45.027" fill="#E8E8E8" width="29.564" height="7.959"/>
		<rect x="-808.922" y="45.027" fill="#3E8571" width="29.564" height="7.959"/>
		<g>
			<path fill="none" stroke="#000000" stroke-miterlimit="10" d="M-706.912,285.242c0,0,46.03-3.908,70.597-38.183"/>
			<g>
				<polygon points="-634.684,249.065 -634.294,244.094 -638.794,246.241 				"/>
			</g>
		</g>
		<line fill="none" x1="-542.69" y1="142.126" x2="-541.594" y2="142.126"/>
		<line fill="none" x1="-542.69" y1="126.175" x2="-541.594" y2="126.175"/>
		
			<line fill="none" stroke="#FFFFFF" stroke-width="2" stroke-linecap="round" stroke-miterlimit="10" x1="-526.178" y1="135.486" x2="-537.138" y2="137.241"/>
		
			<line fill="none" stroke="#FFFFFF" stroke-width="2" stroke-linecap="round" stroke-miterlimit="10" x1="-515.217" y1="133.117" x2="-526.178" y2="135.486"/>
		
			<line fill="none" stroke="#FFFFFF" stroke-width="2" stroke-linecap="round" stroke-miterlimit="10" x1="-504.257" y1="134.119" x2="-515.217" y2="133.117"/>
		
			<line fill="none" stroke="#000000" stroke-width="2" stroke-linecap="round" stroke-miterlimit="10" x1="-613.673" y1="426.714" x2="-624.634" y2="427.729"/>
		
			<line fill="none" stroke="#000000" stroke-width="2" stroke-linecap="round" stroke-miterlimit="10" x1="-602.713" y1="425.181" x2="-613.673" y2="426.714"/>
		
			<line fill="none" stroke="#000000" stroke-width="2" stroke-linecap="round" stroke-miterlimit="10" x1="-591.752" y1="429.818" x2="-602.713" y2="425.181"/>
		<line fill="none" x1="-637.425" y1="257.226" x2="-637.425" y2="256.428"/>
		<line fill="none" x1="-637.425" y1="257.226" x2="-637.425" y2="225.323"/>
		<line fill="none" x1="-637.425" y1="257.226" x2="-636.329" y2="257.226"/>
		<line fill="none" x1="-637.425" y1="246.591" x2="-636.329" y2="246.591"/>
		<line fill="none" x1="-637.425" y1="235.957" x2="-636.329" y2="235.957"/>
		<line fill="none" x1="-637.425" y1="225.323" x2="-636.329" y2="225.323"/>
		
			<line fill="none" stroke="#000000" stroke-width="2" stroke-linecap="round" stroke-miterlimit="10" x1="-620.984" y1="232.945" x2="-631.944" y2="235.492"/>
		
			<line fill="none" stroke="#000000" stroke-width="2" stroke-linecap="round" stroke-miterlimit="10" x1="-610.023" y1="232.435" x2="-620.984" y2="232.945"/>
		
			<line fill="none" stroke="#000000" stroke-width="2" stroke-linecap="round" stroke-miterlimit="10" x1="-599.063" y1="234.012" x2="-610.023" y2="232.435"/>
		<line fill="none" x1="-483.978" y1="318.349" x2="-482.882" y2="318.349"/>
		
			<line fill="none" stroke="#000000" stroke-width="2" stroke-linecap="round" stroke-miterlimit="10" x1="-467.538" y1="324.635" x2="-478.498" y2="326.88"/>
		
			<line fill="none" stroke="#000000" stroke-width="2" stroke-linecap="round" stroke-miterlimit="10" x1="-456.577" y1="323.881" x2="-467.538" y2="324.635"/>
		
			<line fill="none" stroke="#000000" stroke-width="2" stroke-linecap="round" stroke-miterlimit="10" x1="-445.617" y1="325.272" x2="-456.577" y2="323.881"/>
		<path fill="#AFAFAF" d="M-808.596,507.473"/>
		
			<line fill="none" stroke="#000000" stroke-width="2" stroke-linecap="round" stroke-miterlimit="10" x1="-797.635" y1="505.105" x2="-808.596" y2="507.473"/>
	</g>
	<g id="step2_1_">
		<rect x="-758.159" y="73.032" fill="#F9D687" width="60.317" height="180.312"/>
		
		
		<line stroke="#000000" stroke-miterlimit="10" x1="997.315" y1="196.204" x2="1180.284" y2="196.204"/>
		<line x1="997.315" y1="196.204" x2="997.315" y2="192.953"/>
		<line fill="none" x1="1041.99" y1="196.204" x2="1041.99" y2="192.953"/>
		<line fill="none" x1="1086.664" y1="196.204" x2="1086.664" y2="192.953"/>
		<line fill="none" x1="1131.339" y1="196.204" x2="1131.339" y2="192.953"/>
		<line fill="none" stroke="#000000" stroke-miterlimit="10" x1="997.315" y1="196.693" x2="997.315" y2="44.311"/>
		<line fill="none" x1="997.315" y1="196.204" x2="1001.783" y2="196.204"/>
		<line fill="none" x1="997.315" y1="131.186" x2="1001.783" y2="131.186"/>
		<line fill="none" x1="997.315" y1="43.822" x2="1001.783" y2="43.822"/>
		
			<line fill="none" stroke="#000000" stroke-width="2" stroke-linecap="round" stroke-miterlimit="10" x1="1064.327" y1="79.506" x2="1019.652" y2="83.644"/>
		
			<line fill="none" stroke="#000000" stroke-width="2" stroke-linecap="round" stroke-miterlimit="10" x1="1109.001" y1="73.259" x2="1064.327" y2="79.506"/>
		
			<line fill="none" stroke="#000000" stroke-width="2" stroke-linecap="round" stroke-miterlimit="10" x1="1153.676" y1="92.158" x2="1109.001" y2="73.259"/>
		<line stroke="#000000" stroke-miterlimit="10" x1="-906.126" y1="253.344" x2="-675.38" y2="253.344"/>
		<line x1="-906.126" y1="253.344" x2="-906.126" y2="249.037"/>
		<line fill="none" x1="-846.939" y1="253.344" x2="-846.939" y2="249.037"/>
		<line fill="none" x1="-787.753" y1="253.344" x2="-787.753" y2="249.037"/>
		<line fill="none" x1="-728.566" y1="253.344" x2="-728.566" y2="249.037"/>
		<line fill="none" x1="-675.38" y1="253.344" x2="-675.38" y2="249.037"/>
		<line fill="none" stroke="#000000" stroke-miterlimit="10" x1="-906.126" y1="253.992" x2="-906.126" y2="81.716"/>
		<line fill="none" x1="-906.126" y1="253.344" x2="-900.207" y2="253.344"/>
		<line fill="none" x1="-906.126" y1="167.206" x2="-900.207" y2="167.206"/>
		<line fill="none" x1="-906.126" y1="81.068" x2="-900.207" y2="81.068"/>
		
			<line fill="none" stroke="#000000" stroke-width="2" stroke-linecap="round" stroke-miterlimit="10" x1="-817.346" y1="98.739" x2="-876.532" y2="104.22"/>
		
			<line fill="none" stroke="#000000" stroke-width="2" stroke-linecap="round" stroke-miterlimit="10" x1="-758.159" y1="90.462" x2="-817.346" y2="98.739"/>
		
			<line fill="none" stroke="#000000" stroke-width="2" stroke-linecap="round" stroke-miterlimit="10" x1="-698.973" y1="115.501" x2="-758.159" y2="90.462"/>
		<line stroke="#000000" stroke-miterlimit="10" x1="42.744" y1="197.743" x2="236.19" y2="197.743"/>
		<line x1="42.744" y1="197.743" x2="42.744" y2="194.132"/>
		<line fill="none" x1="92.363" y1="197.743" x2="92.363" y2="194.132"/>
		<line fill="none" x1="141.982" y1="197.743" x2="141.982" y2="194.132"/>
		<line fill="none" x1="191.601" y1="197.743" x2="191.601" y2="194.132"/>
		<line fill="none" x1="236.19" y1="197.743" x2="236.19" y2="194.132"/>
		
			<line fill="none" stroke="#000000" stroke-width="2" stroke-linecap="round" stroke-miterlimit="10" x1="117.173" y1="68.129" x2="67.554" y2="72.725"/>
		
			<line fill="none" stroke="#000000" stroke-width="2" stroke-linecap="round" stroke-miterlimit="10" x1="166.792" y1="61.191" x2="117.173" y2="68.129"/>
		
			<line fill="none" stroke="#000000" stroke-width="2" stroke-linecap="round" stroke-miterlimit="10" x1="216.411" y1="82.182" x2="166.792" y2="61.191"/>
		<line fill="none" stroke="#000000" stroke-miterlimit="10" x1="42.744" y1="198.286" x2="42.744" y2="53.858"/>
	</g>
	<g id="step3_1_">
		<rect x="1019.142" y="89.637" fill="#A66120" width="10.347" height="2.786"/>
		<rect x="1029.49" y="89.637" fill="#CC8956" width="10.347" height="2.786"/>
		<rect x="1070.929" y="89.637" fill="#63CEAA" width="10.347" height="2.786"/>
		<rect x="1050.284" y="89.637" fill="#E8E8E8" width="10.347" height="2.786"/>
		<polyline fill="#3E8571" points="1091.523,92.423 1081.176,92.423 1081.176,89.637 1091.523,89.637 		"/>
		<rect x="1039.837" y="89.637" fill="#E3C477" width="10.347" height="2.786"/>
		<rect x="1060.531" y="89.637" fill="#80CDC1" width="10.347" height="2.786"/>
		<line fill="none" x1="964.174" y1="250.572" x2="964.128" y2="148.018"/>
		<rect x="1065.844" y="107.875" fill="#E3C477" width="26.913" height="7.4"/>
		<rect x="1081.025" y="124.154" fill="#CC8956" width="11.733" height="7.4"/>
		<rect x="1081.659" y="140.432" fill="#E3C477" width="11.099" height="7.4"/>
		<rect x="1082.201" y="156.711" fill="#CC8956" width="10.557" height="7.4"/>
		<rect x="1083.684" y="175.989" fill="#CC8956" width="9.073" height="7.4"/>
		<rect x="966.57" y="199.494" fill="#80CDC1" width="36.583" height="7.4"/>
		<rect x="966.57" y="215.773" fill="#3E8571" width="7.563" height="7.4"/>
		<rect x="966.57" y="232.051" fill="#63CEAA" width="4.954" height="7.4"/>
		<rect x="966.57" y="249.33" fill="#80CDC1" width="2.579" height="7.4"/>
		<rect x="966.57" y="265.608" fill="#80CDC1" width="2.543" height="7.4"/>
		<rect x="67.349" y="80.693" fill="#A66120" width="20.695" height="5.572"/>
		<rect x="88.044" y="80.693" fill="#CC8956" width="20.695" height="5.572"/>
		<rect x="170.921" y="80.693" fill="#63CEAA" width="20.695" height="5.572"/>
		<rect x="129.632" y="80.692" fill="#E8E8E8" width="20.695" height="5.572"/>
		<rect x="191.416" y="80.693" fill="#3E8571" width="20.695" height="5.572"/>
		<rect x="108.738" y="80.692" fill="#E3C477" width="20.695" height="5.572"/>
		<rect x="150.127" y="80.693" fill="#80CDC1" width="20.695" height="5.572"/>
		<line fill="none" x1="105.931" y1="295.464" x2="204.128" y2="295.464"/>
		<line fill="none" x1="149.574" y1="295.464" x2="149.574" y2="148.629"/>
		<rect x="111.127" y="106.685" fill="#E3C477" width="38.447" height="10.572"/>
		<rect x="132.813" y="126.368" fill="#CC8956" width="16.761" height="10.572"/>
		<rect x="133.719" y="146.052" fill="#E3C477" width="15.856" height="10.572"/>
		<rect x="134.493" y="164.735" fill="#CC8956" width="15.081" height="10.572"/>
		<rect x="136.612" y="184.419" fill="#CC8956" width="12.962" height="10.572"/>
		<rect x="149.574" y="204.102" fill="#80CDC1" width="52.262" height="10.572"/>
		<rect x="149.574" y="223.786" fill="#3E8571" width="10.805" height="10.572"/>
		<rect x="149.574" y="243.469" fill="#63CEAA" width="7.078" height="10.572"/>
		<rect x="149.574" y="263.153" fill="#80CDC1" width="3.685" height="10.572"/>
		<rect x="149.574" y="282.836" fill="#80CDC1" width="3.632" height="10.572"/>
		<rect x="-883.098" y="92.073" fill="#A66120" width="20.695" height="5.572"/>
		<rect x="-862.404" y="92.073" fill="#CC8956" width="20.695" height="5.572"/>
		<rect x="-779.526" y="92.073" fill="#63CEAA" width="20.695" height="5.572"/>
		<rect x="-820.815" y="92.073" fill="#E8E8E8" width="20.695" height="5.572"/>
		<rect x="-759.031" y="92.073" fill="#3E8571" width="20.695" height="5.572"/>
		<rect x="-841.709" y="92.073" fill="#E3C477" width="20.695" height="5.572"/>
		<rect x="-800.32" y="92.073" fill="#80CDC1" width="20.695" height="5.572"/>
		<line fill="none" x1="-848.095" y1="338.075" x2="-725.349" y2="338.075"/>
		<line fill="none" x1="-793.541" y1="338.075" x2="-793.541" y2="191.24"/>
		<rect x="-841.601" y="117.295" fill="#E3C477" width="48.059" height="10.572"/>
		<rect x="-814.493" y="139.979" fill="#CC8956" width="20.951" height="10.572"/>
		<rect x="-813.361" y="162.662" fill="#E3C477" width="19.819" height="10.572"/>
		<rect x="-812.392" y="185.346" fill="#CC8956" width="18.851" height="10.572"/>
		<rect x="-809.744" y="208.029" fill="#CC8956" width="16.203" height="10.572"/>
		<rect x="-793.541" y="232.713" fill="#80CDC1" width="65.327" height="10.572"/>
		<rect x="-793.541" y="255.396" fill="#3E8571" width="13.506" height="10.572"/>
		<rect x="-793.541" y="278.08" fill="#63CEAA" width="8.847" height="10.572"/>
		<rect x="-793.541" y="301.763" fill="#80CDC1" width="4.606" height="10.572"/>
		<rect x="-793.541" y="325.447" fill="#80CDC1" width="4.54" height="10.572"/>
	</g>
</g>
<style>
#g-map-laptop-interactions-img rect, #g-map-laptop-interactions-img circle, #g-map-laptop-interactions-img path, #g-map-laptop-interactions-img line, #g-map-laptop-interactions-img polyline, #g-map-laptop-interactions-img polygon { vector-effect: non-scaling-stroke; }
</style>
</svg>

