<?xml version="1.0" encoding="utf-8"?>
<!-- Generator: Adobe Illustrator 24.1.0, SVG Export Plug-In . SVG Version: 6.00 Build 0)  -->
<svg version="1.2" baseProfile="tiny" id="g-map-mobile-interactions-img" xmlns="http://www.w3.org/2000/svg" xmlns:xlink="http://www.w3.org/1999/xlink"
	 x="0px" y="0px" viewBox="0 0 375 365.156" xml:space="preserve">
<g>
	<g id="step1_3_">
		<g id="base-legend_4_">
			<rect x="19.851" y="28.059" fill="#A66120" width="29.564" height="7.959"/>
			<rect x="49.415" y="28.059" fill="#E3C477" width="29.564" height="7.959"/>
			<rect x="108.827" y="28.059" fill="#80CDC1" width="29.564" height="7.959"/>
			<rect x="78.978" y="28.059" fill="#E8E8E8" width="29.564" height="7.959"/>
			<rect x="138.105" y="28.059" fill="#3E8571" width="29.564" height="7.959"/>
			<text transform="matrix(1 0 0 1 4.3835 50.2544)" display="none" font-family="'Lato-Regular'" font-size="14px">&lt; -10%</text>
			<text transform="matrix(1 0 0 1 57.4222 50.255)" display="none" font-family="'Lato-Regular'" font-size="14px">-5</text>
			<text transform="matrix(1 0 0 1 89.4142 50.2543)" display="none" font-family="'Lato-Regular'" font-size="14px">0</text>
			<text transform="matrix(1 0 0 1 119.2634 50.2543)" display="none" font-family="'Lato-Regular'" font-size="14px">5</text>
			<text transform="matrix(1 0 0 1 140.7073 50.2551)" display="none" font-family="'Lato-Regular'" font-size="14px">&gt;10</text>
			
				
			<text transform="matrix(1 0 0 1 55.2186 71.6853)" display="none" font-family="'Lato-Regular'" font-size="14px">Missing data</text>
			<g display="none">
				<text transform="matrix(1 0 0 1 4.0138 16.3716)" display="inline" font-family="'Lato-Regular'" font-size="14px">P</text>
				<text transform="matrix(1 0 0 1 12.3575 16.3716)" display="inline" font-family="'Lato-Regular'" font-size="14px">e</text>
				<text transform="matrix(1 0 0 1 19.6935 16.3716)" display="inline" font-family="'Lato-Regular'" font-size="14px">r</text>
				<text transform="matrix(1 0 0 1 25.3356 16.3716)" display="inline" font-family="'Lato-Regular'" font-size="14px">c</text>
				<text transform="matrix(1 0 0 1 31.8737 16.3716)" display="inline" font-family="'Lato-Regular'" font-size="14px">e</text>
				<text transform="matrix(1 0 0 1 39.2091 16.3716)" display="inline" font-family="'Lato-Regular'" font-size="14px">n</text>
				<text transform="matrix(1 0 0 1 46.9933 16.3716)" display="inline" font-family="'Lato-Regular'" font-size="14px">t</text>
				<text transform="matrix(1 0 0 1 52.215 16.3716)" display="inline" font-family="'Lato-Regular'" font-size="14px"> </text>
				<text transform="matrix(1 0 0 1 54.9171 16.3716)" display="inline" font-family="'Lato-Regular'" font-size="14px">c</text>
				<text transform="matrix(1 0 0 1 61.4547 16.3716)" display="inline" font-family="'Lato-Regular'" font-size="14px">h</text>
				<text transform="matrix(1 0 0 1 69.2389 16.3716)" display="inline" font-family="'Lato-Regular'" font-size="14px">a</text>
				<text transform="matrix(1 0 0 1 76.3365 16.3716)" display="inline" font-family="'Lato-Regular'" font-size="14px">n</text>
				<text transform="matrix(1 0 0 1 84.1207 16.3716)" display="inline" font-family="'Lato-Regular'" font-size="14px">g</text>
				<text transform="matrix(1 0 0 1 91.2745 16.3716)" display="inline" font-family="'Lato-Regular'" font-size="14px">e</text>
				<text transform="matrix(1 0 0 1 98.6105 16.3716)" display="inline" font-family="'Lato-Regular'" font-size="14px"> </text>
				<text transform="matrix(1 0 0 1 101.3121 16.3716)" display="inline" font-family="'Lato-Regular'" font-size="14px">f</text>
				<text transform="matrix(1 0 0 1 106.0299 16.3716)" display="inline" font-family="'Lato-Regular'" font-size="14px">r</text>
				<text transform="matrix(1 0 0 1 111.672 16.3716)" display="inline" font-family="'Lato-Regular'" font-size="14px">o</text>
				<text transform="matrix(1 0 0 1 119.4562 16.3716)" display="inline" font-family="'Lato-Regular'" font-size="14px">m</text>
				<text transform="matrix(1 0 0 1 130.9503 16.3716)" display="inline" font-family="'Lato-Regular'" font-size="14px"> </text>
				<text transform="matrix(1 0 0 1 133.652 16.3716)" display="inline" font-family="'Lato-Regular'" font-size="14px">2</text>
				<text transform="matrix(1 0 0 1 141.7716 16.3716)" display="inline" font-family="'Lato-Regular'" font-size="14px">0</text>
				<text transform="matrix(1 0 0 1 149.8917 16.3716)" display="inline" font-family="'Lato-Regular'" font-size="14px">0</text>
				<text transform="matrix(1 0 0 1 158.0114 16.3716)" display="inline" font-family="'Lato-Regular'" font-size="14px">5</text>
				<text transform="matrix(1 0 0 1 166.1315 16.3716)" display="inline" font-family="'Lato-Regular'" font-size="14px"> </text>
				<text transform="matrix(1 0 0 1 168.8331 16.3716)" display="inline" font-family="'Lato-Regular'" font-size="14px">t</text>
				<text transform="matrix(1 0 0 1 174.0548 16.3716)" display="inline" font-family="'Lato-Regular'" font-size="14px">o</text>
				<text transform="matrix(1 0 0 1 181.839 16.3716)" display="inline" font-family="'Lato-Regular'" font-size="14px"> </text>
				<text transform="matrix(1 0 0 1 184.5406 16.3716)" display="inline" font-family="'Lato-Regular'" font-size="14px">2</text>
				<text transform="matrix(1 0 0 1 192.6608 16.3716)" display="inline" font-family="'Lato-Regular'" font-size="14px">0</text>
				<text transform="matrix(1 0 0 1 200.7804 16.3716)" display="inline" font-family="'Lato-Regular'" font-size="14px">1</text>
				<text transform="matrix(1 0 0 1 208.9005 16.3716)" display="inline" font-family="'Lato-Regular'" font-size="14px">9</text>
			</g>
		</g>
		<g id="annotation_4_">
			<g display="none">
				<text transform="matrix(1 0 0 1 9.0001 121.9668)" display="inline" font-family="'Lato-Regular'" font-size="14px">L</text>
				<text transform="matrix(1 0 0 1 16.1959 121.9668)" display="inline" font-family="'Lato-Regular'" font-size="14px">i</text>
				<text transform="matrix(1 0 0 1 19.7799 121.9668)" display="inline" font-family="'Lato-Regular'" font-size="14px">n</text>
				<text transform="matrix(1 0 0 1 27.5641 121.9668)" display="inline" font-family="'Lato-Regular'" font-size="14px">e</text>
				<text transform="matrix(1 0 0 1 34.8995 121.9668)" display="inline" font-family="'Lato-Regular'" font-size="14px">s</text>
				<text transform="matrix(1 0 0 1 40.9757 121.9668)" display="inline" font-family="'Lato-Regular'" font-size="14px"> </text>
				<text transform="matrix(1 0 0 1 43.6774 121.9668)" display="inline" font-family="'Lato-Regular'" font-size="14px">i</text>
				<text transform="matrix(1 0 0 1 47.2614 121.9668)" display="inline" font-family="'Lato-Regular'" font-size="14px">n</text>
				<text transform="matrix(1 0 0 1 55.0455 121.9668)" display="inline" font-family="'Lato-Regular'" font-size="14px">d</text>
				<text transform="matrix(1 0 0 1 62.8712 121.9668)" display="inline" font-family="'Lato-Regular'" font-size="14px">i</text>
				<text transform="matrix(1 0 0 1 66.4552 121.9668)" display="inline" font-family="'Lato-Regular'" font-size="14px">c</text>
				<text transform="matrix(1 0 0 1 72.9933 121.9668)" display="inline" font-family="'Lato-Regular'" font-size="14px">a</text>
				<text transform="matrix(1 0 0 1 80.0909 121.9668)" display="inline" font-family="'Lato-Regular'" font-size="14px">t</text>
				<text transform="matrix(1 0 0 1 85.3131 121.9668)" display="inline" font-family="'Lato-Regular'" font-size="14px">e</text>
				<text transform="matrix(1 0 0 1 92.6486 121.9668)" display="inline" font-family="'Lato-Regular'" font-size="14px"> </text>
				<text transform="matrix(1 0 0 1 95.3507 121.9668)" display="inline" font-family="'Lato-Regular'" font-size="14px">t</text>
				<text transform="matrix(1 0 0 1 100.5724 121.9668)" display="inline" font-family="'Lato-Regular'" font-size="14px">h</text>
				<text transform="matrix(1 0 0 1 108.3566 121.9668)" display="inline" font-family="'Lato-Regular'" font-size="14px">e</text>
				<text transform="matrix(1 0 0 1 115.692 121.9668)" display="inline" font-family="'Lato-Regular'" font-size="14px"> </text>
				<text transform="matrix(1 0 0 1 118.3942 121.9668)" display="inline" font-family="'Lato-Regular'" font-size="14px">c</text>
				<text transform="matrix(1 0 0 1 124.9323 121.9668)" display="inline" font-family="'Lato-Regular'" font-size="14px">h</text>
				<text transform="matrix(1 0 0 1 132.7159 121.9668)" display="inline" font-family="'Lato-Regular'" font-size="14px">a</text>
				<text transform="matrix(1 0 0 1 139.8141 121.9668)" display="inline" font-family="'Lato-Regular'" font-size="14px">n</text>
				<text transform="matrix(1 0 0 1 147.5978 121.9668)" display="inline" font-family="'Lato-Regular'" font-size="14px">g</text>
				<text transform="matrix(1 0 0 1 154.7516 121.9668)" display="inline" font-family="'Lato-Regular'" font-size="14px">e</text>
				<text transform="matrix(1 0 0 1 10.1344 138.7666)" display="inline" font-family="'Lato-Regular'" font-size="14px">i</text>
				<text transform="matrix(1 0 0 1 13.7184 138.7666)" display="inline" font-family="'Lato-Regular'" font-size="14px">n</text>
				<text transform="matrix(1 0 0 1 21.5026 138.7666)" display="inline" font-family="'Lato-Regular'" font-size="14px"> </text>
				<text transform="matrix(1 0 0 1 24.2042 138.7666)" display="inline" font-family="'Lato-Regular'" font-size="14px">n</text>
				<text transform="matrix(1 0 0 1 31.9884 138.7666)" display="inline" font-family="'Lato-Regular'" font-size="14px">u</text>
				<text transform="matrix(1 0 0 1 39.7721 138.7666)" display="inline" font-family="'Lato-Regular'" font-size="14px">m</text>
				<text transform="matrix(1 0 0 1 51.2662 138.7666)" display="inline" font-family="'Lato-Regular'" font-size="14px">b</text>
				<text transform="matrix(1 0 0 1 59.0919 138.7666)" display="inline" font-family="'Lato-Regular'" font-size="14px">e</text>
				<text transform="matrix(1 0 0 1 66.4279 138.7666)" display="inline" font-family="'Lato-Regular'" font-size="14px">r</text>
				<text transform="matrix(1 0 0 1 72.0699 138.7666)" display="inline" font-family="'Lato-Regular'" font-size="14px"> </text>
				<text transform="matrix(1 0 0 1 74.7716 138.7666)" display="inline" font-family="'Lato-Regular'" font-size="14px">o</text>
				<text transform="matrix(1 0 0 1 82.5558 138.7666)" display="inline" font-family="'Lato-Regular'" font-size="14px">f</text>
				<text transform="matrix(1 0 0 1 87.2736 138.7666)" display="inline" font-family="'Lato-Regular'" font-size="14px"> </text>
				<text transform="matrix(1 0 0 1 89.9757 138.7666)" display="inline" font-family="'Lato-Regular'" font-size="14px">s</text>
				<text transform="matrix(1 0 0 1 96.0514 138.7666)" display="inline" font-family="'Lato-Regular'" font-size="14px">p</text>
				<text transform="matrix(1 0 0 1 103.7794 138.7666)" display="inline" font-family="'Lato-Regular'" font-size="14px">e</text>
				<text transform="matrix(1 0 0 1 111.1149 138.7666)" display="inline" font-family="'Lato-Regular'" font-size="14px">a</text>
				<text transform="matrix(1 0 0 1 118.213 138.7666)" display="inline" font-family="'Lato-Regular'" font-size="14px">k</text>
				<text transform="matrix(1 0 0 1 125.1285 138.7666)" display="inline" font-family="'Lato-Regular'" font-size="14px">e</text>
				<text transform="matrix(1 0 0 1 132.4645 138.7666)" display="inline" font-family="'Lato-Regular'" font-size="14px">r</text>
				<text transform="matrix(1 0 0 1 138.1066 138.7666)" display="inline" font-family="'Lato-Regular'" font-size="14px">s</text>
				<text transform="matrix(1 0 0 1 144.1823 138.7666)" display="inline" font-family="'Lato-Regular'" font-size="14px"> </text>
				<text transform="matrix(1 0 0 1 146.8844 138.7666)" display="inline" font-family="'Lato-Regular'" font-size="14px">i</text>
				<text transform="matrix(1 0 0 1 150.4684 138.7666)" display="inline" font-family="'Lato-Regular'" font-size="14px">n</text>
				<text transform="matrix(1 0 0 1 158.2521 138.7666)" display="inline" font-family="'Lato-Regular'" font-size="14px"> </text>
				<text transform="matrix(1 0 0 1 7.2931 155.5669)" display="inline" font-family="'Lato-Regular'" font-size="14px">2</text>
				<text transform="matrix(1 0 0 1 15.4127 155.5669)" display="inline" font-family="'Lato-Regular'" font-size="14px">0</text>
				<text transform="matrix(1 0 0 1 23.5328 155.5669)" display="inline" font-family="'Lato-Regular'" font-size="14px">0</text>
				<text transform="matrix(1 0 0 1 31.6525 155.5669)" display="inline" font-family="'Lato-Regular'" font-size="14px">5</text>
				<text transform="matrix(1 0 0 1 39.7726 155.5669)" display="inline" font-family="'Lato-Regular'" font-size="14px">,</text>
				<text transform="matrix(1 0 0 1 42.7404 155.5669)" display="inline" font-family="'Lato-Regular'" font-size="14px"> </text>
				<text transform="matrix(1 0 0 1 45.442 155.5669)" display="inline" font-family="'Lato-Regular'" font-size="14px">2</text>
				<text transform="matrix(1 0 0 1 53.5621 155.5669)" display="inline" font-family="'Lato-Regular'" font-size="14px">0</text>
				<text transform="matrix(1 0 0 1 61.6818 155.5669)" display="inline" font-family="'Lato-Regular'" font-size="14px">1</text>
				<text transform="matrix(1 0 0 1 69.8014 155.5669)" display="inline" font-family="'Lato-Regular'" font-size="14px">0</text>
				<text transform="matrix(1 0 0 1 77.9215 155.5669)" display="inline" font-family="'Lato-Regular'" font-size="14px">,</text>
				<text transform="matrix(1 0 0 1 80.8893 155.5669)" display="inline" font-family="'Lato-Regular'" font-size="14px"> </text>
				<text transform="matrix(1 0 0 1 83.5909 155.5669)" display="inline" font-family="'Lato-Regular'" font-size="14px">2</text>
				<text transform="matrix(1 0 0 1 91.7111 155.5669)" display="inline" font-family="'Lato-Regular'" font-size="14px">0</text>
				<text transform="matrix(1 0 0 1 99.8307 155.5669)" display="inline" font-family="'Lato-Regular'" font-size="14px">1</text>
				<text transform="matrix(1 0 0 1 107.9503 155.5669)" display="inline" font-family="'Lato-Regular'" font-size="14px">5</text>
				<text transform="matrix(1 0 0 1 116.0704 155.5669)" display="inline" font-family="'Lato-Regular'" font-size="14px"> </text>
				<text transform="matrix(1 0 0 1 118.7721 155.5669)" display="inline" font-family="'Lato-Regular'" font-size="14px">&amp;</text>
				<text transform="matrix(1 0 0 1 128.6139 155.5669)" display="inline" font-family="'Lato-Regular'" font-size="14px"> </text>
				<text transform="matrix(1 0 0 1 131.316 155.5669)" display="inline" font-family="'Lato-Regular'" font-size="14px">2</text>
				<text transform="matrix(1 0 0 1 139.4357 155.5669)" display="inline" font-family="'Lato-Regular'" font-size="14px">0</text>
				<text transform="matrix(1 0 0 1 147.5558 155.5669)" display="inline" font-family="'Lato-Regular'" font-size="14px">1</text>
				<text transform="matrix(1 0 0 1 155.6754 155.5669)" display="inline" font-family="'Lato-Regular'" font-size="14px">9</text>
			</g>
			<g>
				<path fill="none" stroke="#000000" stroke-miterlimit="10" d="M85.544,165.314c0,0,53.815,48.386,119.191,14.921"/>
				<g>
					<polygon points="205.2,182.741 207.905,178.553 202.925,178.304 					"/>
				</g>
			</g>
		</g>
		<g>
			<g display="none">
				
					<text transform="matrix(1 0 0 1 271.8352 121.967)" display="inline" fill="#FFFFFF" font-family="'Lato-Bold'" font-size="14px">Bronx</text>
				
					<text transform="matrix(1 0 0 1 267.5583 138.7668)" display="inline" fill="#FFFFFF" font-family="'Lato-Bold'" font-size="14px">+14.4%</text>
			</g>
			<g display="none">
				<text transform="matrix(1 0 0 1 194.4639 165.314)" display="inline" font-family="'Lato-Bold'" font-size="14px">Manhattan</text>
				<text transform="matrix(1 0 0 1 209.9482 182.1138)" display="inline" font-family="'Lato-Bold'" font-size="14px">+6.8%</text>
			</g>
			<g display="none">
				<text transform="matrix(1 0 0 1 286.3403 209.8509)" display="inline" font-family="'Lato-Bold'" font-size="14px">Queens</text>
				<text transform="matrix(1 0 0 1 291.062 226.6507)" display="inline" font-family="'Lato-Bold'" font-size="14px">+6.9%</text>
			</g>
			<text transform="matrix(1 0 0 1 111.3167 295.6431)" display="none" font-family="'Lato-Bold'" font-size="14px">Staten Island</text>
		</g>
		<g>
			<line fill="none" x1="272.393" y1="178.553" x2="316.235" y2="178.553"/>
			<g>
				<g>
					<line fill="none" x1="272.393" y1="178.553" x2="272.393" y2="177.755"/>
					<line fill="none" x1="283.353" y1="178.553" x2="283.353" y2="177.755"/>
					<line fill="none" x1="294.314" y1="178.553" x2="294.314" y2="177.755"/>
					<line fill="none" x1="305.274" y1="178.553" x2="305.274" y2="177.755"/>
					<line fill="none" x1="316.235" y1="178.553" x2="316.235" y2="177.755"/>
				</g>
			</g>
		</g>
		<g>
			<g>
				
					<text transform="matrix(1 0 0 1 270.4443 178.4785)" display="none" fill="none" font-family="'Lato-Bold'" font-size="2.0551px">0</text>
			</g>
			<g>
				<g>
					<line fill="none" x1="272.321" y1="177.708" x2="273.417" y2="177.708"/>
					<line fill="none" x1="272.221" y1="139.954" x2="273.317" y2="139.954"/>
				</g>
			</g>
		</g>
		<g>
			<g>
				<g>
					
						<line fill="none" stroke="#FFFFFF" stroke-width="2" stroke-linecap="round" stroke-miterlimit="10" x1="288.733" y1="149.266" x2="277.772" y2="151.021"/>
					
						<line fill="none" stroke="#FFFFFF" stroke-width="2" stroke-linecap="round" stroke-miterlimit="10" x1="299.693" y1="146.897" x2="288.733" y2="149.266"/>
					
						<line fill="none" stroke="#FFFFFF" stroke-width="2" stroke-linecap="round" stroke-miterlimit="10" x1="310.654" y1="147.899" x2="299.693" y2="146.897"/>
				</g>
			</g>
		</g>
		<g>
			<g>
				<g>
					<line fill="none" x1="193.852" y1="275.794" x2="193.852" y2="274.997"/>
					<line fill="none" x1="204.812" y1="275.794" x2="204.812" y2="274.997"/>
				</g>
			</g>
		</g>
		<g>
			<g>
				<g>
					
						<line fill="none" stroke="#000000" stroke-width="2" stroke-linecap="round" stroke-miterlimit="10" x1="242.455" y1="283.749" x2="231.494" y2="284.764"/>
					
						<line fill="none" stroke="#000000" stroke-width="2" stroke-linecap="round" stroke-miterlimit="10" x1="253.415" y1="282.217" x2="242.455" y2="283.749"/>
					
						<line fill="none" stroke="#000000" stroke-width="2" stroke-linecap="round" stroke-miterlimit="10" x1="264.376" y1="286.853" x2="253.415" y2="282.217"/>
				</g>
			</g>
		</g>
		<g>
			<g>
				<g>
					<line fill="none" x1="260.752" y1="217.716" x2="260.752" y2="216.919"/>
					<line fill="none" x1="246.859" y1="156.779" x2="246.859" y2="155.981"/>
					<line fill="none" x1="257.819" y1="156.779" x2="257.819" y2="155.981"/>
				</g>
			</g>
		</g>
		<g>
			<g>
				<g>
					<line fill="none" x1="238.832" y1="185.813" x2="239.928" y2="185.813"/>
				</g>
			</g>
		</g>
		<g>
			<g>
				<g>
					
						<line fill="none" stroke="#000000" stroke-width="2" stroke-linecap="round" stroke-miterlimit="10" x1="224.186" y1="190.047" x2="213.226" y2="192.594"/>
					
						<line fill="none" stroke="#000000" stroke-width="2" stroke-linecap="round" stroke-miterlimit="10" x1="235.147" y1="189.537" x2="224.186" y2="190.047"/>
					
						<line fill="none" stroke="#000000" stroke-width="2" stroke-linecap="round" stroke-miterlimit="10" x1="246.107" y1="191.114" x2="235.147" y2="189.537"/>
				</g>
			</g>
		</g>
		<g>
			<g>
				<g>
					
						<line fill="none" stroke="#000000" stroke-width="2" stroke-linecap="round" stroke-miterlimit="10" x1="305.3" y1="234.488" x2="294.339" y2="236.733"/>
					
						<line fill="none" stroke="#000000" stroke-width="2" stroke-linecap="round" stroke-miterlimit="10" x1="316.26" y1="233.734" x2="305.3" y2="234.488"/>
					
						<line fill="none" stroke="#000000" stroke-width="2" stroke-linecap="round" stroke-miterlimit="10" x1="327.221" y1="235.125" x2="316.26" y2="233.734"/>
				</g>
			</g>
		</g>
		<g>
			<path fill="none" d="M126.783,296.837"/>
			<g>
				<g>
					<line fill="none" x1="126.783" y1="297.467" x2="127.879" y2="297.467"/>
				</g>
			</g>
		</g>
		<g>
			<g>
				<g>
					<path fill="none" d="M154.184,307.528"/>
					
						<line fill="none" stroke="#000000" stroke-width="2" stroke-linecap="round" stroke-miterlimit="10" x1="165.145" y1="305.161" x2="154.184" y2="307.528"/>
				</g>
			</g>
		</g>
	</g>
	<g id="step2_3_">
		<line stroke="#000000" stroke-miterlimit="10" x1="40.529" y1="219.955" x2="206.864" y2="219.955"/>
		<line x1="40.529" y1="219.955" x2="40.529" y2="217"/>
		<line fill="none" x1="81.142" y1="219.955" x2="81.142" y2="217"/>
		<line fill="none" x1="121.755" y1="219.955" x2="121.755" y2="217"/>
		<line fill="none" x1="162.368" y1="219.955" x2="162.368" y2="217"/>
		<line fill="none" stroke="#000000" stroke-miterlimit="10" x1="40.529" y1="220.4" x2="40.529" y2="81.871"/>
		<g>
			<g>
				<line fill="none" x1="40.529" y1="219.955" x2="44.59" y2="219.955"/>
				<line fill="none" x1="40.529" y1="160.848" x2="44.59" y2="160.848"/>
				<line fill="none" x1="40.529" y1="81.426" x2="44.59" y2="81.426"/>
			</g>
		</g>
		
			<line fill="none" stroke="#000000" stroke-width="2" stroke-linecap="round" stroke-miterlimit="10" x1="101.448" y1="113.867" x2="60.835" y2="117.628"/>
		
			<line fill="none" stroke="#000000" stroke-width="2" stroke-linecap="round" stroke-miterlimit="10" x1="142.061" y1="108.188" x2="101.448" y2="113.867"/>
		
			<line fill="none" stroke="#000000" stroke-width="2" stroke-linecap="round" stroke-miterlimit="10" x1="182.674" y1="125.368" x2="142.061" y2="108.188"/>
	</g>
	<g id="step3_3_">
		<rect x="20.354" y="94.824" fill="#A66120" width="20.695" height="5.572"/>
		<rect x="41.049" y="94.824" fill="#CC8956" width="20.695" height="5.572"/>
		<rect x="123.927" y="94.824" fill="#63CEAA" width="20.695" height="5.572"/>
		<rect x="82.638" y="94.824" fill="#E8E8E8" width="20.695" height="5.572"/>
		<polyline fill="#3E8571" points="165.116,100.396 144.421,100.396 144.421,94.824 165.116,94.824 		"/>
		<rect x="61.743" y="94.824" fill="#E3C477" width="20.695" height="5.572"/>
		<rect x="103.132" y="94.824" fill="#80CDC1" width="20.695" height="5.572"/>
		<g>
			<line fill="none" x1="185.844" y1="224.111" x2="149.381" y2="228.824"/>
		</g>
		<g>
			<line fill="none" x1="111.239" y1="228.593" x2="111.193" y2="126.04"/>
		</g>
		<g>
			<g>
				<g>
					<rect x="86.28" y="126.479" fill="#E3C477" width="26.913" height="7.4"/>
					<rect x="101.46" y="136.757" fill="#CC8956" width="11.733" height="7.4"/>
					<rect x="102.094" y="147.036" fill="#E3C477" width="11.099" height="7.4"/>
					<rect x="102.636" y="157.314" fill="#CC8956" width="10.557" height="7.4"/>
					<rect x="104.119" y="167.593" fill="#CC8956" width="9.073" height="7.4"/>
					<rect x="113.635" y="179.516" fill="#80CDC1" width="36.583" height="7.4"/>
					<rect x="113.635" y="189.795" fill="#3E8571" width="7.563" height="7.4"/>
					<rect x="113.635" y="200.073" fill="#63CEAA" width="4.954" height="7.4"/>
					<rect x="113.635" y="210.352" fill="#80CDC1" width="2.579" height="7.4"/>
					<rect x="113.635" y="220.63" fill="#80CDC1" width="2.543" height="7.4"/>
				</g>
			</g>
		</g>
		<g>
			<g display="none">
				<text transform="matrix(1 0 0 1 118.2988 227.9186)" display="inline" font-family="'Lato-Regular'" font-size="12px">A</text>
				<text transform="matrix(1 0 0 1 126.459 227.9186)" display="inline" font-family="'Lato-Regular'" font-size="12px">r</text>
				<text transform="matrix(1 0 0 1 131.0664 227.9186)" display="inline" font-family="'Lato-Regular'" font-size="12px">a</text>
				<text transform="matrix(1 0 0 1 137.1504 227.9186)" display="inline" font-family="'Lato-Regular'" font-size="12px">b</text>
				<text transform="matrix(1 0 0 1 143.8584 227.9186)" display="inline" font-family="'Lato-Regular'" font-size="12px">i</text>
				<text transform="matrix(1 0 0 1 146.9307 227.9186)" display="inline" font-family="'Lato-Regular'" font-size="12px">c</text>
			</g>
			<text transform="matrix(1 0 0 1 118.2988 217.6393)" display="none" font-family="'Lato-Regular'" font-size="12px">Other African</text>
			<text transform="matrix(1 0 0 1 120.5391 207.3615)" display="none" font-family="'Lato-Regular'" font-size="12px">Other Asian</text>
			<text transform="matrix(1 0 0 1 123.6748 197.0837)" display="none" font-family="'Lato-Regular'" font-size="12px">Urdu</text>
			<text transform="matrix(1 0 0 1 153.2432 186.8044)" display="none" font-family="'Lato-Regular'" font-size="12px">Chinese 47.9K</text>
			<text transform="matrix(1 0 0 1 40.2736 174.8807)" display="none" font-family="'Lato-Regular'" font-size="12px">Other Indic</text>
			<g display="none">
				<text transform="matrix(1 0 0 1 66.5372 164.6019)" display="inline" font-family="'Lato-Regular'" font-size="12px">P</text>
				<text transform="matrix(1 0 0 1 73.6896 164.6019)" display="inline" font-family="'Lato-Regular'" font-size="12px">o</text>
				<text transform="matrix(1 0 0 1 80.3615 164.6019)" display="inline" font-family="'Lato-Regular'" font-size="12px">l</text>
				<text transform="matrix(1 0 0 1 83.4327 164.6019)" display="inline" font-family="'Lato-Regular'" font-size="12px">i</text>
				<text transform="matrix(1 0 0 1 86.505 164.6019)" display="inline" font-family="'Lato-Regular'" font-size="12px">s</text>
				<text transform="matrix(1 0 0 1 91.713 164.6019)" display="inline" font-family="'Lato-Regular'" font-size="12px">h</text>
			</g>
			<text transform="matrix(1 0 0 1 57.7413 154.3231)" display="none" font-family="'Lato-Regular'" font-size="12px">Russian</text>
			<text transform="matrix(1 0 0 1 64.3458 144.0452)" display="none" font-family="'Lato-Regular'" font-size="12px">Italian</text>
			<text transform="matrix(1 0 0 1 3.9376 133.7669)" display="none" font-family="'Lato-Regular'" font-size="12px">Spanish -35.2K</text>
		</g>
	</g>
</g>
<style>
#g-map-mobile-interactions-img rect, #g-map-mobile-interactions-img circle, #g-map-mobile-interactions-img path, #g-map-mobile-interactions-img line, #g-map-mobile-interactions-img polyline, #g-map-mobile-interactions-img polygon { vector-effect: non-scaling-stroke; }
</style>
</svg>

