<?xml version="1.0" encoding="utf-8"?>
<!-- Generator: Adobe Illustrator 24.1.0, SVG Export Plug-In . SVG Version: 6.00 Build 0)  -->
<svg version="1.2" baseProfile="tiny" id="g-map-laptop-interactions-img" xmlns="http://www.w3.org/2000/svg" xmlns:xlink="http://www.w3.org/1999/xlink"
	 x="0px" y="0px" viewBox="0 0 490 499.407" xml:space="preserve">
<g>
	<g id="step1_3_">
		<g id="base-legend_4_">
			<rect x="22.374" y="28.368" fill="#A66120" width="29.564" height="7.959"/>
			<rect x="51.937" y="28.368" fill="#E3C477" width="29.564" height="7.959"/>
			<rect x="111.35" y="28.368" fill="#80CDC1" width="29.564" height="7.959"/>
			<rect x="81.501" y="28.368" fill="#E8E8E8" width="29.564" height="7.959"/>
			<rect x="140.628" y="28.368" fill="#3E8571" width="29.564" height="7.959"/>
			<text transform="matrix(1 0 0 1 6.9062 50.5633)" display="none" font-family="'Lato-Regular'" font-size="14px">&lt; -10%</text>
			<text transform="matrix(1 0 0 1 59.9449 50.5639)" display="none" font-family="'Lato-Regular'" font-size="14px">-5</text>
			<text transform="matrix(1 0 0 1 91.9369 50.5631)" display="none" font-family="'Lato-Regular'" font-size="14px">0</text>
			<text transform="matrix(1 0 0 1 121.7862 50.5632)" display="none" font-family="'Lato-Regular'" font-size="14px">5</text>
			<text transform="matrix(1 0 0 1 143.2301 50.5639)" display="none" font-family="'Lato-Regular'" font-size="14px">&gt;10</text>
			
				
			<text transform="matrix(1 0 0 1 57.7413 71.9941)" display="none" font-family="'Lato-Regular'" font-size="14px">Missing data</text>
			<g display="none">
				<text transform="matrix(1 0 0 1 6.5365 16.6805)" display="inline" font-family="'Lato-Regular'" font-size="14px">P</text>
				<text transform="matrix(1 0 0 1 14.8802 16.6805)" display="inline" font-family="'Lato-Regular'" font-size="14px">e</text>
				<text transform="matrix(1 0 0 1 22.2162 16.6805)" display="inline" font-family="'Lato-Regular'" font-size="14px">r</text>
				<text transform="matrix(1 0 0 1 27.8582 16.6805)" display="inline" font-family="'Lato-Regular'" font-size="14px">c</text>
				<text transform="matrix(1 0 0 1 34.3963 16.6805)" display="inline" font-family="'Lato-Regular'" font-size="14px">e</text>
				<text transform="matrix(1 0 0 1 41.7318 16.6805)" display="inline" font-family="'Lato-Regular'" font-size="14px">n</text>
				<text transform="matrix(1 0 0 1 49.516 16.6805)" display="inline" font-family="'Lato-Regular'" font-size="14px">t</text>
				<text transform="matrix(1 0 0 1 54.7376 16.6805)" display="inline" font-family="'Lato-Regular'" font-size="14px"> </text>
				<text transform="matrix(1 0 0 1 57.4398 16.6805)" display="inline" font-family="'Lato-Regular'" font-size="14px">c</text>
				<text transform="matrix(1 0 0 1 63.9774 16.6805)" display="inline" font-family="'Lato-Regular'" font-size="14px">h</text>
				<text transform="matrix(1 0 0 1 71.7616 16.6805)" display="inline" font-family="'Lato-Regular'" font-size="14px">a</text>
				<text transform="matrix(1 0 0 1 78.8592 16.6805)" display="inline" font-family="'Lato-Regular'" font-size="14px">n</text>
				<text transform="matrix(1 0 0 1 86.6434 16.6805)" display="inline" font-family="'Lato-Regular'" font-size="14px">g</text>
				<text transform="matrix(1 0 0 1 93.7972 16.6805)" display="inline" font-family="'Lato-Regular'" font-size="14px">e</text>
				<text transform="matrix(1 0 0 1 101.1331 16.6805)" display="inline" font-family="'Lato-Regular'" font-size="14px"> </text>
				<text transform="matrix(1 0 0 1 103.8348 16.6805)" display="inline" font-family="'Lato-Regular'" font-size="14px">f</text>
				<text transform="matrix(1 0 0 1 108.5526 16.6805)" display="inline" font-family="'Lato-Regular'" font-size="14px">r</text>
				<text transform="matrix(1 0 0 1 114.1947 16.6805)" display="inline" font-family="'Lato-Regular'" font-size="14px">o</text>
				<text transform="matrix(1 0 0 1 121.9789 16.6805)" display="inline" font-family="'Lato-Regular'" font-size="14px">m</text>
				<text transform="matrix(1 0 0 1 133.473 16.6805)" display="inline" font-family="'Lato-Regular'" font-size="14px"> </text>
				<text transform="matrix(1 0 0 1 136.1747 16.6805)" display="inline" font-family="'Lato-Regular'" font-size="14px">2</text>
				<text transform="matrix(1 0 0 1 144.2943 16.6805)" display="inline" font-family="'Lato-Regular'" font-size="14px">0</text>
				<text transform="matrix(1 0 0 1 152.4144 16.6805)" display="inline" font-family="'Lato-Regular'" font-size="14px">0</text>
				<text transform="matrix(1 0 0 1 160.534 16.6805)" display="inline" font-family="'Lato-Regular'" font-size="14px">5</text>
				<text transform="matrix(1 0 0 1 168.6541 16.6805)" display="inline" font-family="'Lato-Regular'" font-size="14px"> </text>
				<text transform="matrix(1 0 0 1 171.3558 16.6805)" display="inline" font-family="'Lato-Regular'" font-size="14px">t</text>
				<text transform="matrix(1 0 0 1 176.5775 16.6805)" display="inline" font-family="'Lato-Regular'" font-size="14px">o</text>
				<text transform="matrix(1 0 0 1 184.3617 16.6805)" display="inline" font-family="'Lato-Regular'" font-size="14px"> </text>
				<text transform="matrix(1 0 0 1 187.0633 16.6805)" display="inline" font-family="'Lato-Regular'" font-size="14px">2</text>
				<text transform="matrix(1 0 0 1 195.1834 16.6805)" display="inline" font-family="'Lato-Regular'" font-size="14px">0</text>
				<text transform="matrix(1 0 0 1 203.3031 16.6805)" display="inline" font-family="'Lato-Regular'" font-size="14px">1</text>
				<text transform="matrix(1 0 0 1 211.4232 16.6805)" display="inline" font-family="'Lato-Regular'" font-size="14px">9</text>
			</g>
		</g>
		<g id="annotation_4_">
			<g display="none">
				<text transform="matrix(1 0 0 1 9.6612 238.9708)" display="inline" font-family="'Lato-Regular'" font-size="14px">L</text>
				<text transform="matrix(1 0 0 1 16.857 238.9708)" display="inline" font-family="'Lato-Regular'" font-size="14px">i</text>
				<text transform="matrix(1 0 0 1 20.441 238.9708)" display="inline" font-family="'Lato-Regular'" font-size="14px">n</text>
				<text transform="matrix(1 0 0 1 28.2252 238.9708)" display="inline" font-family="'Lato-Regular'" font-size="14px">e</text>
				<text transform="matrix(1 0 0 1 35.5606 238.9708)" display="inline" font-family="'Lato-Regular'" font-size="14px">s</text>
				<text transform="matrix(1 0 0 1 41.6368 238.9708)" display="inline" font-family="'Lato-Regular'" font-size="14px"> </text>
				<text transform="matrix(1 0 0 1 44.3385 238.9708)" display="inline" font-family="'Lato-Regular'" font-size="14px">i</text>
				<text transform="matrix(1 0 0 1 47.9225 238.9708)" display="inline" font-family="'Lato-Regular'" font-size="14px">n</text>
				<text transform="matrix(1 0 0 1 55.7066 238.9708)" display="inline" font-family="'Lato-Regular'" font-size="14px">d</text>
				<text transform="matrix(1 0 0 1 63.5323 238.9708)" display="inline" font-family="'Lato-Regular'" font-size="14px">i</text>
				<text transform="matrix(1 0 0 1 67.1163 238.9708)" display="inline" font-family="'Lato-Regular'" font-size="14px">c</text>
				<text transform="matrix(1 0 0 1 73.6544 238.9708)" display="inline" font-family="'Lato-Regular'" font-size="14px">a</text>
				<text transform="matrix(1 0 0 1 80.752 238.9708)" display="inline" font-family="'Lato-Regular'" font-size="14px">t</text>
				<text transform="matrix(1 0 0 1 85.9742 238.9708)" display="inline" font-family="'Lato-Regular'" font-size="14px">e</text>
				<text transform="matrix(1 0 0 1 93.3097 238.9708)" display="inline" font-family="'Lato-Regular'" font-size="14px"> </text>
				<text transform="matrix(1 0 0 1 96.0118 238.9708)" display="inline" font-family="'Lato-Regular'" font-size="14px">t</text>
				<text transform="matrix(1 0 0 1 101.2335 238.9708)" display="inline" font-family="'Lato-Regular'" font-size="14px">h</text>
				<text transform="matrix(1 0 0 1 109.0177 238.9708)" display="inline" font-family="'Lato-Regular'" font-size="14px">e</text>
				<text transform="matrix(1 0 0 1 116.3531 238.9708)" display="inline" font-family="'Lato-Regular'" font-size="14px"> </text>
				<text transform="matrix(1 0 0 1 119.0553 238.9708)" display="inline" font-family="'Lato-Regular'" font-size="14px">c</text>
				<text transform="matrix(1 0 0 1 125.5934 238.9708)" display="inline" font-family="'Lato-Regular'" font-size="14px">h</text>
				<text transform="matrix(1 0 0 1 133.377 238.9708)" display="inline" font-family="'Lato-Regular'" font-size="14px">a</text>
				<text transform="matrix(1 0 0 1 140.4752 238.9708)" display="inline" font-family="'Lato-Regular'" font-size="14px">n</text>
				<text transform="matrix(1 0 0 1 148.2589 238.9708)" display="inline" font-family="'Lato-Regular'" font-size="14px">g</text>
				<text transform="matrix(1 0 0 1 155.4127 238.9708)" display="inline" font-family="'Lato-Regular'" font-size="14px">e</text>
				<text transform="matrix(1 0 0 1 162.7486 238.9708)" display="inline" font-family="'Lato-Regular'" font-size="14px"> </text>
				<text transform="matrix(1 0 0 1 165.4503 238.9708)" display="inline" font-family="'Lato-Regular'" font-size="14px">i</text>
				<text transform="matrix(1 0 0 1 169.0343 238.9708)" display="inline" font-family="'Lato-Regular'" font-size="14px">n</text>
				<text transform="matrix(1 0 0 1 176.8185 238.9708)" display="inline" font-family="'Lato-Regular'" font-size="14px"> </text>
				<text transform="matrix(1 0 0 1 7.1412 255.7706)" display="inline" font-family="'Lato-Regular'" font-size="14px">n</text>
				<text transform="matrix(1 0 0 1 14.9254 255.7706)" display="inline" font-family="'Lato-Regular'" font-size="14px">u</text>
				<text transform="matrix(1 0 0 1 22.7091 255.7706)" display="inline" font-family="'Lato-Regular'" font-size="14px">m</text>
				<text transform="matrix(1 0 0 1 34.2032 255.7706)" display="inline" font-family="'Lato-Regular'" font-size="14px">b</text>
				<text transform="matrix(1 0 0 1 42.0289 255.7706)" display="inline" font-family="'Lato-Regular'" font-size="14px">e</text>
				<text transform="matrix(1 0 0 1 49.3648 255.7706)" display="inline" font-family="'Lato-Regular'" font-size="14px">r</text>
				<text transform="matrix(1 0 0 1 55.0069 255.7706)" display="inline" font-family="'Lato-Regular'" font-size="14px"> </text>
				<text transform="matrix(1 0 0 1 57.7086 255.7706)" display="inline" font-family="'Lato-Regular'" font-size="14px">o</text>
				<text transform="matrix(1 0 0 1 65.4928 255.7706)" display="inline" font-family="'Lato-Regular'" font-size="14px">f</text>
				<text transform="matrix(1 0 0 1 70.2105 255.7706)" display="inline" font-family="'Lato-Regular'" font-size="14px"> </text>
				<text transform="matrix(1 0 0 1 72.9127 255.7706)" display="inline" font-family="'Lato-Regular'" font-size="14px">s</text>
				<text transform="matrix(1 0 0 1 78.9884 255.7706)" display="inline" font-family="'Lato-Regular'" font-size="14px">p</text>
				<text transform="matrix(1 0 0 1 86.7164 255.7706)" display="inline" font-family="'Lato-Regular'" font-size="14px">e</text>
				<text transform="matrix(1 0 0 1 94.0518 255.7706)" display="inline" font-family="'Lato-Regular'" font-size="14px">a</text>
				<text transform="matrix(1 0 0 1 101.15 255.7706)" display="inline" font-family="'Lato-Regular'" font-size="14px">k</text>
				<text transform="matrix(1 0 0 1 108.0655 255.7706)" display="inline" font-family="'Lato-Regular'" font-size="14px">e</text>
				<text transform="matrix(1 0 0 1 115.4015 255.7706)" display="inline" font-family="'Lato-Regular'" font-size="14px">r</text>
				<text transform="matrix(1 0 0 1 121.0435 255.7706)" display="inline" font-family="'Lato-Regular'" font-size="14px">s</text>
				<text transform="matrix(1 0 0 1 127.1192 255.7706)" display="inline" font-family="'Lato-Regular'" font-size="14px"> </text>
				<text transform="matrix(1 0 0 1 129.8214 255.7706)" display="inline" font-family="'Lato-Regular'" font-size="14px">i</text>
				<text transform="matrix(1 0 0 1 133.4054 255.7706)" display="inline" font-family="'Lato-Regular'" font-size="14px">n</text>
				<text transform="matrix(1 0 0 1 141.1891 255.7706)" display="inline" font-family="'Lato-Regular'" font-size="14px"> </text>
				<text transform="matrix(1 0 0 1 143.8912 255.7706)" display="inline" font-family="'Lato-Regular'" font-size="14px">2</text>
				<text transform="matrix(1 0 0 1 152.0108 255.7706)" display="inline" font-family="'Lato-Regular'" font-size="14px">0</text>
				<text transform="matrix(1 0 0 1 160.131 255.7706)" display="inline" font-family="'Lato-Regular'" font-size="14px">0</text>
				<text transform="matrix(1 0 0 1 168.2506 255.7706)" display="inline" font-family="'Lato-Regular'" font-size="14px">5</text>
				<text transform="matrix(1 0 0 1 176.3702 255.7706)" display="inline" font-family="'Lato-Regular'" font-size="14px">,</text>
				<text transform="matrix(1 0 0 1 179.3385 255.7706)" display="inline" font-family="'Lato-Regular'" font-size="14px"> </text>
				<text transform="matrix(1 0 0 1 28.9815 272.5709)" display="inline" font-family="'Lato-Regular'" font-size="14px">2</text>
				<text transform="matrix(1 0 0 1 37.1012 272.5709)" display="inline" font-family="'Lato-Regular'" font-size="14px">0</text>
				<text transform="matrix(1 0 0 1 45.2213 272.5709)" display="inline" font-family="'Lato-Regular'" font-size="14px">1</text>
				<text transform="matrix(1 0 0 1 53.3409 272.5709)" display="inline" font-family="'Lato-Regular'" font-size="14px">0</text>
				<text transform="matrix(1 0 0 1 61.461 272.5709)" display="inline" font-family="'Lato-Regular'" font-size="14px">,</text>
				<text transform="matrix(1 0 0 1 64.4288 272.5709)" display="inline" font-family="'Lato-Regular'" font-size="14px"> </text>
				<text transform="matrix(1 0 0 1 67.1305 272.5709)" display="inline" font-family="'Lato-Regular'" font-size="14px">2</text>
				<text transform="matrix(1 0 0 1 75.2506 272.5709)" display="inline" font-family="'Lato-Regular'" font-size="14px">0</text>
				<text transform="matrix(1 0 0 1 83.3702 272.5709)" display="inline" font-family="'Lato-Regular'" font-size="14px">1</text>
				<text transform="matrix(1 0 0 1 91.4898 272.5709)" display="inline" font-family="'Lato-Regular'" font-size="14px">5</text>
				<text transform="matrix(1 0 0 1 99.61 272.5709)" display="inline" font-family="'Lato-Regular'" font-size="14px"> </text>
				<text transform="matrix(1 0 0 1 102.3116 272.5709)" display="inline" font-family="'Lato-Regular'" font-size="14px">a</text>
				<text transform="matrix(1 0 0 1 109.4098 272.5709)" display="inline" font-family="'Lato-Regular'" font-size="14px">n</text>
				<text transform="matrix(1 0 0 1 117.1935 272.5709)" display="inline" font-family="'Lato-Regular'" font-size="14px">d</text>
				<text transform="matrix(1 0 0 1 125.0196 272.5709)" display="inline" font-family="'Lato-Regular'" font-size="14px"> </text>
				<text transform="matrix(1 0 0 1 127.7213 272.5709)" display="inline" font-family="'Lato-Regular'" font-size="14px">2</text>
				<text transform="matrix(1 0 0 1 135.8409 272.5709)" display="inline" font-family="'Lato-Regular'" font-size="14px">0</text>
				<text transform="matrix(1 0 0 1 143.961 272.5709)" display="inline" font-family="'Lato-Regular'" font-size="14px">1</text>
				<text transform="matrix(1 0 0 1 152.0807 272.5709)" display="inline" font-family="'Lato-Regular'" font-size="14px">9</text>
			</g>
			<g>
				<path fill="none" stroke="#000000" stroke-miterlimit="10" d="M180.497,249.551c0,0,35.03-12.881,48.765-46.674"/>
				<g>
					<polygon points="231.304,204.445 230.53,199.52 226.651,202.652 					"/>
				</g>
			</g>
		</g>
		<g>
			<g display="none">
				
					<text transform="matrix(1 0 0 1 328.3781 85.8941)" display="inline" fill="#FFFFFF" font-family="'Lato-Bold'" font-size="14px">Bronx</text>
				
					<text transform="matrix(1 0 0 1 324.1013 102.6939)" display="inline" fill="#FFFFFF" font-family="'Lato-Bold'" font-size="14px">+14.4%</text>
			</g>
			<g display="none">
				<text transform="matrix(1 0 0 1 213.399 168.1832)" display="inline" font-family="'Lato-Bold'" font-size="14px">Manhattan</text>
				<text transform="matrix(1 0 0 1 228.8834 184.983)" display="inline" font-family="'Lato-Bold'" font-size="14px">+6.8%</text>
			</g>
			<g display="none">
				<text transform="matrix(1 0 0 1 358.6901 236.9889)" display="inline" font-family="'Lato-Bold'" font-size="14px">Queens</text>
				<text transform="matrix(1 0 0 1 363.4118 253.7887)" display="inline" font-family="'Lato-Bold'" font-size="14px">+6.9%</text>
			</g>
			<text transform="matrix(1 0 0 1 69.1583 373.3571)" display="none" font-family="'Lato-Bold'" font-size="14px">Staten Island</text>
		</g>
		<g>
			<g>
				<g>
					<line fill="none" x1="320.507" y1="108.93" x2="321.603" y2="108.93"/>
					<line fill="none" x1="328.764" y1="103.882" x2="329.86" y2="103.882"/>
				</g>
			</g>
		</g>
		<g>
			<g>
				<g>
					
						<line fill="none" stroke="#FFFFFF" stroke-width="2" stroke-linecap="round" stroke-miterlimit="10" x1="345.276" y1="113.193" x2="334.315" y2="114.948"/>
					
						<line fill="none" stroke="#FFFFFF" stroke-width="2" stroke-linecap="round" stroke-miterlimit="10" x1="356.236" y1="110.824" x2="345.276" y2="113.193"/>
					
						<line fill="none" stroke="#FFFFFF" stroke-width="2" stroke-linecap="round" stroke-miterlimit="10" x1="367.197" y1="111.826" x2="356.236" y2="110.824"/>
				</g>
			</g>
		</g>
		<g>
			<g>
				<g>
					<line fill="none" x1="289.527" y1="358.943" x2="289.527" y2="358.146"/>
				</g>
			</g>
		</g>
		<g>
			<g>
				<g>
					
						<line fill="none" stroke="#000000" stroke-width="2" stroke-linecap="round" stroke-miterlimit="10" x1="269.95" y1="347.404" x2="258.99" y2="348.419"/>
					
						<line fill="none" stroke="#000000" stroke-width="2" stroke-linecap="round" stroke-miterlimit="10" x1="280.911" y1="345.871" x2="269.95" y2="347.404"/>
					
						<line fill="none" stroke="#000000" stroke-width="2" stroke-linecap="round" stroke-miterlimit="10" x1="291.871" y1="350.508" x2="280.911" y2="345.871"/>
				</g>
			</g>
		</g>
		<g>
			<g>
				<g>
					<line fill="none" x1="259.562" y1="217.197" x2="259.562" y2="216.4"/>
					<line fill="none" x1="270.522" y1="217.197" x2="270.522" y2="216.4"/>
				</g>
			</g>
		</g>
		<g>
			<g>
				<g>
					<line fill="none" x1="226.681" y1="206.563" x2="227.777" y2="206.563"/>
					<line fill="none" x1="226.681" y1="195.928" x2="227.777" y2="195.928"/>
				</g>
			</g>
		</g>
		<g>
			<g>
				<g>
					
						<line fill="none" stroke="#000000" stroke-width="2" stroke-linecap="round" stroke-miterlimit="10" x1="243.121" y1="192.916" x2="232.161" y2="195.464"/>
					
						<line fill="none" stroke="#000000" stroke-width="2" stroke-linecap="round" stroke-miterlimit="10" x1="254.082" y1="192.406" x2="243.121" y2="192.916"/>
					
						<line fill="none" stroke="#000000" stroke-width="2" stroke-linecap="round" stroke-miterlimit="10" x1="265.042" y1="193.983" x2="254.082" y2="192.406"/>
				</g>
			</g>
		</g>
		<g>
			<g>
				<g>
					<line fill="none" x1="405.051" y1="287.243" x2="405.051" y2="286.445"/>
				</g>
			</g>
		</g>
		<g>
			<g>
				<g>
					<line fill="none" x1="361.209" y1="255.339" x2="362.305" y2="255.339"/>
				</g>
			</g>
		</g>
		<g>
			<g>
				<g>
					
						<line fill="none" stroke="#000000" stroke-width="2" stroke-linecap="round" stroke-miterlimit="10" x1="377.65" y1="261.626" x2="366.689" y2="263.871"/>
					
						<line fill="none" stroke="#000000" stroke-width="2" stroke-linecap="round" stroke-miterlimit="10" x1="388.61" y1="260.872" x2="377.65" y2="261.626"/>
					
						<line fill="none" stroke="#000000" stroke-width="2" stroke-linecap="round" stroke-miterlimit="10" x1="399.571" y1="262.263" x2="388.61" y2="260.872"/>
				</g>
			</g>
		</g>
		<g>
			<g>
				<g>
					
						<line fill="none" stroke="#000000" stroke-width="2" stroke-linecap="round" stroke-miterlimit="10" x1="122.986" y1="382.875" x2="112.026" y2="385.242"/>
				</g>
			</g>
		</g>
	</g>
	<g id="step2_3_">
		<g>
			<line stroke="#000000" stroke-miterlimit="10" x1="40.53" y1="221.09" x2="208.744" y2="221.09"/>
			<g>
				<g>
					<line x1="40.53" y1="221.09" x2="40.53" y2="217.951"/>
					<line fill="none" x1="83.677" y1="221.09" x2="83.677" y2="217.951"/>
					<line fill="none" x1="126.824" y1="221.09" x2="126.824" y2="217.951"/>
					<line fill="none" x1="169.971" y1="221.09" x2="169.971" y2="217.951"/>
					<line fill="none" x1="208.744" y1="221.09" x2="208.744" y2="217.951"/>
				</g>
			</g>
		</g>
		<g>
			<g>
				<text transform="matrix(1 0 0 1 29.713 224.124)" display="none" font-family="'Lato-Regular'" font-size="14px">0</text>
				<text transform="matrix(1 0 0 1 3.9395 161.3281)" display="none" font-family="'Lato-Regular'" font-size="14px">600K</text>
				<text transform="matrix(1 0 0 1 5.7452 98.5327)" display="none" font-family="'Lato-Regular'" font-size="14px">1.2M</text>
			</g>
			<line fill="none" stroke="#000000" stroke-miterlimit="10" x1="40.53" y1="221.563" x2="40.53" y2="95.973"/>
			<g>
				<g>
					<line fill="none" x1="40.53" y1="221.09" x2="44.845" y2="221.09"/>
					<line fill="none" x1="40.53" y1="158.296" x2="44.845" y2="158.296"/>
					<line fill="none" x1="40.53" y1="95.501" x2="44.845" y2="95.501"/>
				</g>
			</g>
		</g>
		<g>
			<g>
				<g>
					
						<line fill="none" stroke="#000000" stroke-width="2" stroke-linecap="round" stroke-miterlimit="10" x1="105.25" y1="108.383" x2="62.104" y2="112.379"/>
					
						<line fill="none" stroke="#000000" stroke-width="2" stroke-linecap="round" stroke-miterlimit="10" x1="148.397" y1="102.349" x2="105.25" y2="108.383"/>
					
						<line fill="none" stroke="#000000" stroke-width="2" stroke-linecap="round" stroke-miterlimit="10" x1="191.544" y1="120.602" x2="148.397" y2="102.349"/>
				</g>
			</g>
		</g>
	</g>
	<g id="step3_3_">
		<rect x="22.738" y="98.628" fill="#A66120" width="29.564" height="7.959"/>
		<rect x="52.302" y="98.628" fill="#CC8956" width="29.564" height="7.959"/>
		<rect x="170.698" y="98.628" fill="#63CEAA" width="29.564" height="7.959"/>
		<rect x="111.714" y="98.628" fill="#E8E8E8" width="29.564" height="7.959"/>
		<rect x="199.977" y="98.628" fill="#3E8571" width="29.564" height="7.959"/>
		<rect x="81.865" y="98.628" fill="#E3C477" width="29.564" height="7.959"/>
		<rect x="140.992" y="98.628" fill="#80CDC1" width="29.564" height="7.959"/>
		<g>
			<line fill="none" x1="81.865" y1="276.08" x2="180.062" y2="276.08"/>
		</g>
		<g>
			<line fill="none" x1="125.508" y1="276.08" x2="125.508" y2="129.245"/>
		</g>
		<g>
			<g>
				<g>
					<rect x="87.061" y="131.3" fill="#E3C477" width="38.447" height="10.572"/>
					<rect x="108.747" y="145.984" fill="#CC8956" width="16.761" height="10.572"/>
					<rect x="109.653" y="160.667" fill="#E3C477" width="15.856" height="10.572"/>
					<rect x="110.427" y="175.351" fill="#CC8956" width="15.081" height="10.572"/>
					<rect x="112.546" y="190.034" fill="#CC8956" width="12.962" height="10.572"/>
					<rect x="125.508" y="204.718" fill="#80CDC1" width="52.262" height="10.572"/>
					<rect x="125.508" y="219.401" fill="#3E8571" width="10.805" height="10.572"/>
					<rect x="125.508" y="234.085" fill="#63CEAA" width="7.078" height="10.572"/>
					<rect x="125.508" y="248.768" fill="#80CDC1" width="3.685" height="10.572"/>
					<rect x="125.508" y="263.452" fill="#80CDC1" width="3.632" height="10.572"/>
				</g>
			</g>
		</g>
		<g>
			<g display="none">
				<text transform="matrix(1 0 0 1 132.1703 272.4352)" display="inline" font-family="'Lato-Regular'" font-size="12px">A</text>
				<text transform="matrix(1 0 0 1 140.3304 272.4352)" display="inline" font-family="'Lato-Regular'" font-size="12px">r</text>
				<text transform="matrix(1 0 0 1 144.9379 272.4352)" display="inline" font-family="'Lato-Regular'" font-size="12px">a</text>
				<text transform="matrix(1 0 0 1 151.0219 272.4352)" display="inline" font-family="'Lato-Regular'" font-size="12px">b</text>
				<text transform="matrix(1 0 0 1 157.7299 272.4352)" display="inline" font-family="'Lato-Regular'" font-size="12px">i</text>
				<text transform="matrix(1 0 0 1 160.8021 272.4352)" display="inline" font-family="'Lato-Regular'" font-size="12px">c</text>
				<text transform="matrix(1 0 0 1 166.4056 272.4352)" display="inline" font-family="'Lato-Regular'" font-size="12px"> </text>
				<text transform="matrix(1 0 0 1 168.722 272.4352)" display="inline" font-family="'Lato-Regular'" font-size="12px">3</text>
				<text transform="matrix(1 0 0 1 175.682 272.4352)" display="inline" font-family="'Lato-Regular'" font-size="12px">.</text>
				<text transform="matrix(1 0 0 1 178.226 272.4352)" display="inline" font-family="'Lato-Regular'" font-size="12px">3</text>
				<text transform="matrix(1 0 0 1 185.1849 272.4352)" display="inline" font-family="'Lato-Regular'" font-size="12px">K</text>
			</g>
			<text transform="matrix(1 0 0 1 132.1703 257.7506)" display="none" font-family="'Lato-Regular'" font-size="12px">Other African 3.4K</text>
			<text transform="matrix(1 0 0 1 135.3705 243.068)" display="none" font-family="'Lato-Regular'" font-size="12px">Other Asian 6.5K</text>
			<text transform="matrix(1 0 0 1 139.851 228.3854)" display="none" font-family="'Lato-Regular'" font-size="12px">Urdu 9.9K</text>
			<text transform="matrix(1 0 0 1 182.0912 213.7003)" display="none" font-family="'Lato-Regular'" font-size="12px">Chinese 47.9K</text>
			<text transform="matrix(1 0 0 1 11.7924 199.0172)" display="none" font-family="'Lato-Regular'" font-size="12px">Other Indic -11.9K</text>
			<g display="none">
				<text transform="matrix(1 0 0 1 37.2885 184.3336)" display="inline" font-family="'Lato-Regular'" font-size="12px">P</text>
				<text transform="matrix(1 0 0 1 44.4408 184.3336)" display="inline" font-family="'Lato-Regular'" font-size="12px">o</text>
				<text transform="matrix(1 0 0 1 51.1127 184.3336)" display="inline" font-family="'Lato-Regular'" font-size="12px">l</text>
				<text transform="matrix(1 0 0 1 54.184 184.3336)" display="inline" font-family="'Lato-Regular'" font-size="12px">i</text>
				<text transform="matrix(1 0 0 1 57.2562 184.3336)" display="inline" font-family="'Lato-Regular'" font-size="12px">s</text>
				<text transform="matrix(1 0 0 1 62.4642 184.3336)" display="inline" font-family="'Lato-Regular'" font-size="12px">h</text>
				<text transform="matrix(1 0 0 1 69.1361 184.3336)" display="inline" font-family="'Lato-Regular'" font-size="12px"> </text>
				<text transform="matrix(1 0 0 1 71.4525 184.3336)" display="inline" font-family="'Lato-Regular'" font-size="12px">-</text>
				<text transform="matrix(1 0 0 1 75.6156 184.3336)" display="inline" font-family="'Lato-Regular'" font-size="12px">1</text>
				<text transform="matrix(1 0 0 1 82.5756 184.3336)" display="inline" font-family="'Lato-Regular'" font-size="12px">3</text>
				<text transform="matrix(1 0 0 1 89.5355 184.3336)" display="inline" font-family="'Lato-Regular'" font-size="12px">.</text>
				<text transform="matrix(1 0 0 1 92.0795 184.3336)" display="inline" font-family="'Lato-Regular'" font-size="12px">8</text>
				<text transform="matrix(1 0 0 1 99.0394 184.3336)" display="inline" font-family="'Lato-Regular'" font-size="12px">K</text>
			</g>
			<text transform="matrix(1 0 0 1 28.4926 169.6496)" display="none" font-family="'Lato-Regular'" font-size="12px">Russian -14.5K</text>
			<text transform="matrix(1 0 0 1 34.7123 154.9669)" display="none" font-family="'Lato-Regular'" font-size="12px">Italian -15.4K</text>
			<text transform="matrix(1 0 0 1 6.0443 140.2834)" display="none" font-family="'Lato-Regular'" font-size="12px">Spanish -35.2K</text>
		</g>
	</g>
</g>
<style>
#g-map-laptop-interactions-img rect, #g-map-laptop-interactions-img circle, #g-map-laptop-interactions-img path, #g-map-laptop-interactions-img line, #g-map-laptop-interactions-img polyline, #g-map-laptop-interactions-img polygon { vector-effect: non-scaling-stroke; }
</style>
</svg>

